<svg xmlns="http://www.w3.org/2000/svg" width="40.371" height="47.178" viewBox="0 0 40.371 47.178">
  <g id="Group_21806" data-name="Group 21806" transform="translate(-210 -656.5)">
    <g id="Group_21805" data-name="Group 21805" transform="translate(210 656.5)">
      <g id="Group_21779" data-name="Group 21779" transform="translate(0 0)" opacity="0">
        <path id="Path_310" data-name="Path 310" d="M161.7,63.586a4.21,4.21,0,0,1-2.339-.715l-.11-.073c-4.55-3.027-13.018-8.663-15.419-19.287-2.586-11.441-2.317-18.012-2.3-18.287a4.726,4.726,0,0,1,3.184-4.346c.081-.026,2.039-.643,7.48-2.151,5.8-1.607,8.517-2.2,8.629-2.224a4.135,4.135,0,0,1,1.756,0c.113.024,2.832.618,8.63,2.225,5.441,1.508,7.4,2.124,7.48,2.15a4.726,4.726,0,0,1,3.184,4.346c.013.275.282,6.846-2.3,18.287-2.4,10.625-10.87,16.26-15.419,19.287l-.11.073A4.21,4.21,0,0,1,161.7,63.586ZM150.538,29.072a85.963,85.963,0,0,0,1.932,12.181c1.261,5.577,5.646,9.357,9.231,11.9,3.585-2.542,7.97-6.323,9.231-11.9a85.9,85.9,0,0,0,1.931-12.181c-1.016-.29-2.294-.651-3.873-1.089-3.706-1.028-6.1-1.624-7.289-1.907-1.185.283-3.583.879-7.289,1.906C152.832,28.421,151.554,28.782,150.538,29.072Z" transform="translate(-141.516 -16.409)" fill="#0070ff"/>
      </g>
      <g id="Group_21780" data-name="Group 21780" transform="translate(0.226 0.226)" opacity="0.001">
        <path id="Path_311" data-name="Path 311" d="M161.975,63.634a4.035,4.035,0,0,1-2.243-.687l-.11-.073c-4.516-3.008-12.922-8.608-15.3-19.14-2.573-11.394-2.306-17.928-2.293-18.2a4.537,4.537,0,0,1,3.054-4.172c.08-.025,2.03-.64,7.454-2.145,5.777-1.6,8.485-2.194,8.6-2.218a3.959,3.959,0,0,1,1.684,0c.112.024,2.82.615,8.6,2.218,5.424,1.5,7.373,2.12,7.454,2.145a4.536,4.536,0,0,1,3.054,4.171c.013.273.28,6.807-2.293,18.2-2.379,10.532-10.785,16.131-15.3,19.14l-.109.073A4.036,4.036,0,0,1,161.975,63.634ZM150.661,29.228a85.524,85.524,0,0,0,1.942,12.34c1.283,5.68,5.756,9.5,9.372,12.055,3.615-2.554,8.088-6.374,9.371-12.055a85.505,85.505,0,0,0,1.942-12.34c-1.035-.3-2.354-.67-4-1.127-3.737-1.037-6.141-1.634-7.312-1.913-1.171.279-3.575.877-7.312,1.913C153.015,28.558,151.7,28.931,150.661,29.228Zm12.156-3.236Z" transform="translate(-142.015 -16.908)" fill="#0070ff"/>
      </g>
      <g id="Group_21781" data-name="Group 21781" transform="translate(0.452 0.452)" opacity="0.002">
        <path id="Path_312" data-name="Path 312" d="M162.248,63.681a3.86,3.86,0,0,1-2.147-.658l-.109-.073c-4.483-2.989-12.827-8.552-15.182-18.992-2.56-11.348-2.295-17.844-2.282-18.115a4.347,4.347,0,0,1,2.923-4c.08-.025,2.022-.638,7.427-2.139,5.757-1.6,8.452-2.188,8.564-2.212a3.782,3.782,0,0,1,1.611,0c.112.024,2.808.614,8.564,2.212,5.406,1.5,7.347,2.114,7.427,2.139a4.347,4.347,0,0,1,2.923,4c.013.271.278,6.767-2.282,18.115-2.355,10.44-10.7,16-15.182,18.992l-.109.073A3.859,3.859,0,0,1,162.248,63.681Zm-11.463-34.3a85.22,85.22,0,0,0,1.952,12.5c1.305,5.785,5.866,9.642,9.511,12.208,3.644-2.565,8.205-6.423,9.51-12.208a85.111,85.111,0,0,0,1.953-12.5c-1.052-.3-2.412-.688-4.129-1.165-3.768-1.046-6.179-1.645-7.334-1.92-1.156.276-3.566.874-7.334,1.92C153.2,28.7,151.838,29.081,150.786,29.384Zm12.268-3.272Z" transform="translate(-142.514 -17.408)" fill="#0070ff"/>
      </g>
      <g id="Group_21782" data-name="Group 21782" transform="translate(0.678 0.679)" opacity="0.003">
        <path id="Path_313" data-name="Path 313" d="M162.522,63.729a3.686,3.686,0,0,1-2.052-.629l-.109-.073c-4.449-2.969-12.731-8.5-15.063-18.844-2.547-11.3-2.283-17.759-2.27-18.029a4.157,4.157,0,0,1,2.793-3.824c.08-.025,2.013-.636,7.4-2.134,5.736-1.595,8.419-2.182,8.531-2.206a3.621,3.621,0,0,1,1.54,0c.112.024,2.795.611,8.531,2.206,5.388,1.5,7.321,2.108,7.4,2.134a4.157,4.157,0,0,1,2.793,3.824c.013.269.276,6.727-2.271,18.029-2.332,10.347-10.614,15.875-15.063,18.844l-.109.073A3.686,3.686,0,0,1,162.522,63.729ZM150.913,29.542A84.762,84.762,0,0,0,152.874,42.2c1.327,5.888,5.976,9.784,9.648,12.36,3.672-2.576,8.32-6.472,9.648-12.36a84.762,84.762,0,0,0,1.962-12.655c-1.068-.308-2.467-.7-4.255-1.2-3.8-1.056-6.215-1.655-7.355-1.927-1.14.271-3.556.871-7.355,1.927C153.38,28.837,151.981,29.234,150.913,29.542Z" transform="translate(-143.015 -17.908)" fill="#0070ff"/>
      </g>
      <g id="Group_21783" data-name="Group 21783" transform="translate(0.904 0.905)" opacity="0.004">
        <path id="Path_314" data-name="Path 314" d="M162.8,63.777a3.512,3.512,0,0,1-1.957-.6l-.109-.073c-4.415-2.95-12.634-8.442-14.944-18.7-2.534-11.254-2.272-17.674-2.259-17.942a3.967,3.967,0,0,1,2.664-3.65c.079-.026,2-.634,7.373-2.128,5.715-1.59,8.386-2.176,8.5-2.2a3.449,3.449,0,0,1,1.469,0c.111.024,2.782.609,8.5,2.2,5.369,1.494,7.294,2.1,7.373,2.128a3.968,3.968,0,0,1,2.664,3.65c.013.267.274,6.688-2.26,17.942C177.5,54.662,169.276,60.153,164.86,63.1l-.108.073A3.513,3.513,0,0,1,162.8,63.777ZM151.042,29.7a84.4,84.4,0,0,0,1.97,12.812c1.35,5.993,6.086,9.925,9.784,12.511,3.7-2.586,8.434-6.519,9.784-12.511a84.409,84.409,0,0,0,1.97-12.812c-1.082-.313-2.519-.722-4.378-1.239-3.83-1.066-6.253-1.666-7.375-1.934-1.123.267-3.545.868-7.376,1.934C153.561,28.978,152.124,29.387,151.042,29.7Zm12.488-3.342Z" transform="translate(-143.514 -18.408)" fill="#0070ff"/>
      </g>
      <g id="Group_21784" data-name="Group 21784" transform="translate(1.13 1.131)" opacity="0.006">
        <path id="Path_315" data-name="Path 315" d="M163.069,63.824a3.342,3.342,0,0,1-1.862-.572l-.108-.073c-4.382-2.93-12.538-8.385-14.824-18.548-2.521-11.207-2.26-17.589-2.248-17.855a3.78,3.78,0,0,1,2.535-3.478c.079-.025,2-.632,7.346-2.122,5.694-1.586,8.352-2.169,8.462-2.193a3.279,3.279,0,0,1,1.4,0c.11.024,2.769.607,8.463,2.193,5.35,1.49,7.267,2.1,7.346,2.122a3.78,3.78,0,0,1,2.535,3.478c.012.266.272,6.648-2.248,17.855-2.286,10.163-10.442,15.618-14.824,18.548l-.108.073A3.34,3.34,0,0,1,163.069,63.824Zm-11.9-33.966a84,84,0,0,0,1.978,12.967c1.371,6.1,6.2,10.065,9.918,12.661,3.723-2.6,8.547-6.564,9.918-12.661a83.9,83.9,0,0,0,1.978-12.967c-1.093-.317-2.569-.738-4.5-1.275-3.862-1.076-6.291-1.677-7.4-1.94-1.105.263-3.534.864-7.4,1.94C153.742,29.121,152.266,29.542,151.173,29.858Z" transform="translate(-144.013 -18.908)" fill="#0070ff"/>
      </g>
      <g id="Group_21785" data-name="Group 21785" transform="translate(1.356 1.357)" opacity="0.008">
        <path id="Path_316" data-name="Path 316" d="M163.343,63.872a3.17,3.17,0,0,1-1.768-.544l-.108-.072c-4.348-2.911-12.441-8.33-14.7-18.4-2.507-11.159-2.249-17.5-2.237-17.768a3.592,3.592,0,0,1,2.407-3.305c.079-.025,1.987-.63,7.317-2.116,5.672-1.581,8.318-2.162,8.428-2.186a3.107,3.107,0,0,1,1.327,0c.11.024,2.756.6,8.428,2.186,5.331,1.487,7.239,2.091,7.318,2.116a3.591,3.591,0,0,1,2.407,3.305c.012.265.271,6.609-2.237,17.768-2.262,10.07-10.355,15.489-14.7,18.4l-.109.072A3.169,3.169,0,0,1,163.343,63.872ZM151.306,30.018a83.585,83.585,0,0,0,1.985,13.121c1.393,6.2,6.3,10.2,10.051,12.809,3.746-2.605,8.658-6.609,10.051-12.809a83.58,83.58,0,0,0,1.985-13.121c-1.1-.321-2.616-.753-4.621-1.312-3.895-1.086-6.328-1.688-7.415-1.946-1.087.258-3.52.86-7.415,1.946C153.923,29.265,152.409,29.7,151.306,30.018Z" transform="translate(-144.513 -19.409)" fill="#0070ff"/>
      </g>
      <g id="Group_21786" data-name="Group 21786" transform="translate(1.582 1.583)" opacity="0.01">
        <path id="Path_317" data-name="Path 317" d="M163.616,63.92a3,3,0,0,1-1.674-.516l-.108-.072c-4.314-2.891-12.344-8.274-14.583-18.251-2.494-11.111-2.237-17.417-2.225-17.68a3.405,3.405,0,0,1,2.28-3.134c.078-.025,1.978-.628,7.289-2.11,5.65-1.578,8.284-2.156,8.393-2.18a2.95,2.95,0,0,1,1.257,0c.109.024,2.743.6,8.393,2.18,5.312,1.482,7.211,2.085,7.29,2.11a3.405,3.405,0,0,1,2.279,3.134c.012.263.269,6.569-2.225,17.68-2.239,9.977-10.269,15.36-14.583,18.251l-.107.072A3,3,0,0,1,163.616,63.92ZM151.441,30.179a83.214,83.214,0,0,0,1.992,13.274c1.415,6.305,6.415,10.343,10.183,12.956,3.768-2.613,8.767-6.651,10.182-12.956a83.132,83.132,0,0,0,1.992-13.274c-1.11-.324-2.66-.768-4.741-1.349-3.927-1.1-6.366-1.7-7.433-1.952-1.067.253-3.506.855-7.434,1.952C154.1,29.411,152.552,29.855,151.441,30.179Z" transform="translate(-145.013 -19.908)" fill="#0070ff"/>
      </g>
      <g id="Group_21787" data-name="Group 21787" transform="translate(1.808 1.809)" opacity="0.013">
        <path id="Path_318" data-name="Path 318" d="M163.89,63.967a2.832,2.832,0,0,1-1.581-.488l-.108-.072c-4.28-2.872-12.246-8.218-14.462-18.1-2.48-11.063-2.226-17.331-2.214-17.592a3.219,3.219,0,0,1,2.153-2.963c.078-.025,1.969-.626,7.261-2.1,5.628-1.573,8.249-2.149,8.357-2.173a2.771,2.771,0,0,1,1.187,0c.108.024,2.73.6,8.357,2.173,5.292,1.479,7.183,2.08,7.261,2.1a3.219,3.219,0,0,1,2.153,2.963c.012.261.266,6.528-2.214,17.592-2.216,9.885-10.182,15.231-14.463,18.1l-.107.072A2.831,2.831,0,0,1,163.89,63.967ZM151.579,30.34a82.739,82.739,0,0,0,2,13.426c1.437,6.41,6.524,10.48,10.312,13.1,3.788-2.622,8.875-6.692,10.312-13.1a82.661,82.661,0,0,0,2-13.426c-1.115-.326-2.7-.782-4.859-1.385-3.962-1.107-6.4-1.71-7.451-1.958-1.047.248-3.49.851-7.452,1.958C154.28,29.559,152.695,30.014,151.579,30.34Z" transform="translate(-145.512 -20.408)" fill="#0070ff"/>
      </g>
      <g id="Group_21788" data-name="Group 21788" transform="translate(2.034 2.035)" opacity="0.016">
        <path id="Path_319" data-name="Path 319" d="M164.164,64.015a2.663,2.663,0,0,1-1.489-.459l-.107-.072c-4.246-2.852-12.149-8.162-14.342-17.954-2.466-11.015-2.214-17.244-2.2-17.5a3.034,3.034,0,0,1,2.027-2.792c.077-.025,1.96-.623,7.232-2.1,5.6-1.568,8.213-2.143,8.322-2.167a2.6,2.6,0,0,1,1.117,0c.109.023,2.717.6,8.322,2.167,5.272,1.475,7.154,2.073,7.232,2.1a3.034,3.034,0,0,1,2.026,2.792c.012.26.265,6.488-2.2,17.5-2.193,9.792-10.1,15.1-14.341,17.954l-.107.072A2.663,2.663,0,0,1,164.164,64.015ZM151.719,30.5a82.318,82.318,0,0,0,2,13.577c1.458,6.514,6.633,10.617,10.44,13.245,3.807-2.629,8.982-6.732,10.44-13.245a82.3,82.3,0,0,0,2-13.577c-1.118-.328-2.738-.794-4.975-1.42-4-1.118-6.444-1.721-7.469-1.964-1.025.243-3.473.846-7.469,1.964C154.457,29.708,152.838,30.174,151.719,30.5Zm13-3.514Z" transform="translate(-146.012 -20.908)" fill="#0070ff"/>
      </g>
      <g id="Group_21789" data-name="Group 21789" transform="translate(2.26 2.262)" opacity="0.019">
        <path id="Path_320" data-name="Path 320" d="M164.437,64.063a2.5,2.5,0,0,1-1.4-.431l-.107-.072c-4.212-2.833-12.05-8.105-14.22-17.805-2.453-10.966-2.2-17.157-2.19-17.415a2.849,2.849,0,0,1,1.9-2.622c.077-.025,1.95-.621,7.2-2.092,5.582-1.564,8.178-2.136,8.286-2.16a2.447,2.447,0,0,1,1.048,0c.108.024,2.7.6,8.286,2.16,5.252,1.471,7.125,2.068,7.2,2.092a2.848,2.848,0,0,1,1.9,2.622c.012.258.262,6.448-2.19,17.415-2.169,9.7-10.008,14.972-14.22,17.805l-.107.072A2.5,2.5,0,0,1,164.437,64.063Zm-12.576-33.4a81.888,81.888,0,0,0,2.009,13.726c1.48,6.618,6.742,10.753,10.567,13.388,3.825-2.636,9.087-6.77,10.567-13.388a81.858,81.858,0,0,0,2.009-13.726c-1.118-.329-2.772-.807-5.09-1.456-4.031-1.129-6.484-1.733-7.485-1.97-1,.237-3.454.841-7.485,1.97C154.634,29.859,152.98,30.337,151.861,30.666Zm13.1-3.547Z" transform="translate(-146.512 -21.409)" fill="#0070ff"/>
      </g>
      <g id="Group_21790" data-name="Group 21790" transform="translate(2.486 2.488)" opacity="0.023">
        <path id="Path_321" data-name="Path 321" d="M164.711,64.11a2.331,2.331,0,0,1-1.3-.4l-.106-.072c-4.177-2.813-11.952-8.049-14.1-17.656-2.439-10.918-2.19-17.069-2.178-17.325A2.664,2.664,0,0,1,148.8,26.2c.077-.024,1.941-.619,7.172-2.086,5.559-1.559,8.142-2.129,8.249-2.153a2.282,2.282,0,0,1,.979,0c.107.024,2.69.594,8.249,2.153,5.231,1.467,7.1,2.062,7.172,2.086a2.664,2.664,0,0,1,1.776,2.453c.012.256.26,6.408-2.178,17.325-2.146,9.607-9.921,14.843-14.1,17.656l-.106.072A2.33,2.33,0,0,1,164.711,64.11Zm-12.7-33.28A81.4,81.4,0,0,0,154.02,44.7c1.5,6.723,6.851,10.887,10.691,13.53,3.841-2.642,9.19-6.807,10.691-13.53a81.364,81.364,0,0,0,2.013-13.875c-1.116-.329-2.8-.818-5.2-1.491-4.067-1.141-6.523-1.744-7.5-1.976-.978.231-3.434.835-7.5,1.976C154.808,30.012,153.122,30.5,152.006,30.83ZM165.2,27.25Z" transform="translate(-147.012 -21.908)" fill="#0070ff"/>
      </g>
      <g id="Group_21791" data-name="Group 21791" transform="translate(2.712 2.714)" opacity="0.028">
        <path id="Path_322" data-name="Path 322" d="M164.985,64.158a2.167,2.167,0,0,1-1.214-.376l-.106-.072c-4.142-2.793-11.853-7.992-13.976-17.506-2.424-10.868-2.178-16.981-2.166-17.236a2.481,2.481,0,0,1,1.652-2.285c.076-.024,1.932-.617,7.142-2.08,5.535-1.555,8.105-2.123,8.212-2.146a2.108,2.108,0,0,1,.911,0c.107.023,2.676.591,8.211,2.146,5.211,1.463,7.066,2.055,7.142,2.08a2.481,2.481,0,0,1,1.652,2.285c.012.255.259,6.367-2.166,17.236-2.122,9.514-9.833,14.713-13.975,17.506l-.106.072A2.167,2.167,0,0,1,164.985,64.158ZM152.154,31a80.929,80.929,0,0,0,2.017,14.022c1.523,6.827,6.959,11.022,10.814,13.669,3.855-2.648,9.291-6.842,10.814-13.669A80.974,80.974,0,0,0,177.816,31c-1.111-.329-2.829-.828-5.315-1.527-4.1-1.152-6.564-1.756-7.516-1.981-.953.225-3.413.828-7.516,1.981C154.982,30.168,153.264,30.667,152.154,31Z" transform="translate(-147.511 -22.408)" fill="#0070ff"/>
      </g>
      <g id="Group_21792" data-name="Group 21792" transform="translate(2.938 2.94)" opacity="0.032">
        <path id="Path_323" data-name="Path 323" d="M165.258,64.205a2,2,0,0,1-1.123-.348l-.106-.071c-4.108-2.773-11.754-7.936-13.853-17.357-2.41-10.818-2.166-16.892-2.154-17.145a2.3,2.3,0,0,1,1.529-2.117c.076-.025,1.922-.614,7.111-2.074,5.511-1.55,8.068-2.116,8.174-2.139a1.956,1.956,0,0,1,.843,0c.106.024,2.662.589,8.174,2.139,5.19,1.459,7.036,2.049,7.112,2.074a2.3,2.3,0,0,1,1.528,2.117c.011.253.256,6.327-2.154,17.145-2.1,9.422-9.745,14.584-13.853,17.357l-.106.071A2,2,0,0,1,165.258,64.205ZM152.3,31.162a80.477,80.477,0,0,0,2.02,14.167c1.544,6.932,7.068,11.155,10.936,13.808,3.868-2.653,9.391-6.876,10.935-13.808a80.386,80.386,0,0,0,2.019-14.167c-1.1-.328-2.849-.837-5.424-1.561-4.142-1.165-6.6-1.768-7.53-1.986-.926.218-3.389.821-7.531,1.986C155.153,30.325,153.4,30.834,152.3,31.162Z" transform="translate(-148.01 -22.908)" fill="#0070ff"/>
      </g>
      <g id="Group_21793" data-name="Group 21793" transform="translate(3.164 3.166)" opacity="0.038">
        <path id="Path_324" data-name="Path 324" d="M165.532,64.253a1.838,1.838,0,0,1-1.033-.321l-.105-.071c-4.073-2.754-11.654-7.879-13.73-17.208-2.4-10.769-2.153-16.8-2.142-17.055a2.117,2.117,0,0,1,1.406-1.95c.076-.024,1.913-.612,7.08-2.067,5.487-1.545,8.03-2.109,8.135-2.132a1.8,1.8,0,0,1,.775,0c.106.023,2.648.587,8.136,2.132,5.168,1.455,7,2.043,7.08,2.067a2.116,2.116,0,0,1,1.405,1.949c.011.252.255,6.286-2.142,17.055-2.076,9.328-9.657,14.454-13.73,17.208l-.1.071A1.84,1.84,0,0,1,165.532,64.253ZM152.455,31.33a80,80,0,0,0,2.022,14.312c1.566,7.036,7.175,11.287,11.055,13.945,3.879-2.658,9.489-6.909,11.054-13.945a79.926,79.926,0,0,0,2.022-14.312c-1.09-.325-2.867-.845-5.532-1.6-4.193-1.181-6.65-1.781-7.544-1.991-.9.211-3.362.814-7.544,1.991C155.322,30.485,153.545,31,152.455,31.33Z" transform="translate(-148.51 -23.409)" fill="#0070ff"/>
      </g>
      <g id="Group_21794" data-name="Group 21794" transform="translate(3.39 3.393)" opacity="0.044">
        <path id="Path_325" data-name="Path 325" d="M165.805,64.3a1.678,1.678,0,0,1-.943-.293l-.1-.071c-4.038-2.734-11.554-7.822-13.606-17.057-2.382-10.719-2.141-16.714-2.129-16.964a1.935,1.935,0,0,1,1.284-1.783c.075-.024,1.9-.61,7.048-2.061,5.463-1.54,7.992-2.1,8.1-2.125a1.637,1.637,0,0,1,.708,0c.1.023,2.634.585,8.1,2.125,5.146,1.451,6.973,2.037,7.049,2.061a1.936,1.936,0,0,1,1.284,1.783c.011.25.253,6.245-2.129,16.964-2.052,9.235-9.568,14.324-13.606,17.057l-.105.071A1.676,1.676,0,0,1,165.805,64.3Zm-13.2-32.8a79.391,79.391,0,0,0,2.023,14.455c1.587,7.141,7.282,11.418,11.172,14.08,3.889-2.662,9.585-6.94,11.172-14.08A79.392,79.392,0,0,0,179,31.5c-1.074-.322-2.878-.851-5.638-1.629-4.223-1.191-6.69-1.793-7.557-2-.866.2-3.334.805-7.557,2C155.488,30.646,153.684,31.176,152.61,31.5Z" transform="translate(-149.01 -23.908)" fill="#0070ff"/>
      </g>
      <g id="Group_21795" data-name="Group 21795" transform="translate(3.616 3.619)" opacity="0.051">
        <path id="Path_326" data-name="Path 326" d="M166.079,64.348a1.519,1.519,0,0,1-.854-.266l-.1-.071c-4-2.714-11.454-7.765-13.482-16.908-2.367-10.668-2.128-16.624-2.117-16.872a1.756,1.756,0,0,1,1.163-1.617c.075-.024,1.893-.607,7.016-2.054,5.438-1.536,7.953-2.095,8.058-2.118a1.477,1.477,0,0,1,.641,0c.1.023,2.62.582,8.058,2.118,5.124,1.447,6.942,2.03,7.016,2.054a1.756,1.756,0,0,1,1.163,1.617c.011.248.25,6.2-2.117,16.872-2.028,9.143-9.479,14.194-13.482,16.908l-.1.071A1.519,1.519,0,0,1,166.079,64.348ZM152.768,31.667a78.893,78.893,0,0,0,2.024,14.6c1.607,7.245,7.39,11.548,11.287,14.214,3.9-2.666,9.679-6.969,11.287-14.214a78.833,78.833,0,0,0,2.024-14.6c-1.054-.317-2.884-.856-5.743-1.663-4.265-1.2-6.735-1.806-7.568-2-.834.2-3.3.8-7.569,2C155.652,30.811,153.822,31.35,152.768,31.667Z" transform="translate(-149.509 -24.408)" fill="#0070ff"/>
      </g>
      <g id="Group_21796" data-name="Group 21796" transform="translate(3.842 3.845)" opacity="0.059">
        <path id="Path_327" data-name="Path 327" d="M166.353,64.4a1.358,1.358,0,0,1-.766-.239l-.1-.071c-3.967-2.693-11.353-7.708-13.358-16.757-2.352-10.617-2.116-16.534-2.1-16.78a1.576,1.576,0,0,1,1.043-1.452c.074-.024,1.883-.605,6.984-2.047,5.412-1.531,7.914-2.088,8.018-2.111a1.33,1.33,0,0,1,.574,0c.1.023,2.606.58,8.018,2.111,5.1,1.442,6.91,2.023,6.984,2.047a1.576,1.576,0,0,1,1.042,1.452c.011.247.248,6.163-2.1,16.78-2.005,9.049-9.39,14.064-13.358,16.757l-.1.071A1.36,1.36,0,0,1,166.353,64.4ZM152.928,31.839a78.348,78.348,0,0,0,2.024,14.737c1.628,7.35,7.5,11.678,11.4,14.347,3.9-2.669,9.772-7,11.4-14.347a78.255,78.255,0,0,0,2.024-14.737c-1.028-.311-2.883-.859-5.845-1.7-4.309-1.218-6.781-1.819-7.579-2.006-.8.187-3.27.787-7.579,2.006C155.811,30.979,153.957,31.527,152.928,31.839Z" transform="translate(-150.009 -24.908)" fill="#0070ff"/>
      </g>
      <g id="Group_21797" data-name="Group 21797" transform="translate(4.068 4.071)" opacity="0.068">
        <path id="Path_328" data-name="Path 328" d="M166.626,64.444a1.2,1.2,0,0,1-.678-.212l-.1-.07c-3.932-2.674-11.251-7.651-13.233-16.607-2.337-10.567-2.1-16.443-2.092-16.688a1.4,1.4,0,0,1,.923-1.287c.074-.024,1.873-.6,6.951-2.041,5.387-1.526,7.874-2.08,7.978-2.1a1.186,1.186,0,0,1,.509,0c.1.023,2.591.577,7.978,2.1,5.079,1.438,6.877,2.017,6.951,2.041a1.4,1.4,0,0,1,.923,1.287c.011.245.246,6.121-2.092,16.688-1.981,8.956-9.3,13.933-13.233,16.607l-.1.07A1.2,1.2,0,0,1,166.626,64.444ZM153.092,32.011a77.663,77.663,0,0,0,2.023,14.876c1.649,7.454,7.6,11.806,11.511,14.477,3.908-2.672,9.862-7.024,11.511-14.477a77.678,77.678,0,0,0,2.023-14.876c-1-.3-2.874-.861-5.945-1.73-4.356-1.234-6.829-1.833-7.589-2.011-.76.178-3.233.777-7.59,2.011C155.966,31.15,154.09,31.708,153.092,32.011Z" transform="translate(-150.509 -25.409)" fill="#0070ff"/>
      </g>
      <g id="Group_21798" data-name="Group 21798" transform="translate(4.294 4.297)" opacity="0.079">
        <path id="Path_329" data-name="Path 329" d="M166.9,64.492a1.047,1.047,0,0,1-.591-.185l-.1-.071c-3.9-2.653-11.15-7.593-13.107-16.456-2.323-10.515-2.09-16.352-2.079-16.595a1.219,1.219,0,0,1,.8-1.124c.074-.024,1.862-.6,6.917-2.034,5.361-1.521,7.834-2.073,7.937-2.1a1.033,1.033,0,0,1,.443,0c.1.023,2.576.575,7.937,2.1,5.055,1.433,6.843,2.01,6.917,2.034a1.22,1.22,0,0,1,.8,1.124c.011.243.244,6.08-2.079,16.595-1.958,8.863-9.211,13.8-13.107,16.456l-.1.071A1.048,1.048,0,0,1,166.9,64.492ZM153.258,32.184A77.072,77.072,0,0,0,155.279,47.2c1.669,7.557,7.708,11.932,11.62,14.606,3.912-2.675,9.951-7.049,11.62-14.606a76.7,76.7,0,0,0,2.023-15.013c-.961-.294-2.857-.86-6.045-1.764-4.407-1.25-6.88-1.847-7.6-2.015-.718.168-3.191.765-7.6,2.015C156.111,31.325,154.218,31.891,153.258,32.184Z" transform="translate(-151.008 -25.909)" fill="#0070ff"/>
      </g>
      <g id="Group_21799" data-name="Group 21799" transform="translate(4.52 4.523)" opacity="0.093">
        <path id="Path_330" data-name="Path 330" d="M167.173,64.539a.891.891,0,0,1-.5-.158l-.1-.07c-3.86-2.634-11.047-7.535-12.981-16.305-2.308-10.463-2.077-16.26-2.066-16.5a1.042,1.042,0,0,1,.687-.96c.073-.024,1.852-.6,6.883-2.027,5.334-1.515,7.794-2.065,7.9-2.088a.859.859,0,0,1,.379,0c.1.023,2.561.573,7.9,2.088,5.032,1.429,6.81,2,6.883,2.027a1.041,1.041,0,0,1,.686.96c.011.242.242,6.039-2.066,16.5-1.934,8.77-9.12,13.672-12.981,16.305l-.1.07A.892.892,0,0,1,167.173,64.539ZM153.428,32.358a76.367,76.367,0,0,0,2.019,15.149c1.69,7.662,7.813,12.057,11.727,14.734,3.913-2.677,10.037-7.073,11.726-14.734a76.08,76.08,0,0,0,2.021-15.149c-.917-.282-2.829-.856-6.141-1.8-4.461-1.267-6.934-1.862-7.606-2.019-.673.157-3.146.752-7.606,2.019C156.257,31.5,154.345,32.076,153.428,32.358Z" transform="translate(-151.508 -26.408)" fill="#0070ff"/>
      </g>
      <g id="Group_21800" data-name="Group 21800" transform="translate(4.746 4.75)" opacity="0.113">
        <path id="Path_331" data-name="Path 331" d="M167.447,64.587a.739.739,0,0,1-.418-.131l-.1-.07c-3.825-2.613-10.944-7.477-12.855-16.154-2.292-10.411-2.063-16.167-2.053-16.407a.866.866,0,0,1,.57-.8c.073-.024,1.841-.6,6.848-2.02,5.308-1.51,7.752-2.058,7.853-2.08a.719.719,0,0,1,.314,0c.1.022,2.546.57,7.853,2.08,5.007,1.425,6.776,2,6.849,2.02a.866.866,0,0,1,.57.8c.011.24.239,6-2.053,16.407-1.911,8.677-9.03,13.541-12.855,16.154l-.1.07A.737.737,0,0,1,167.447,64.587ZM153.6,32.534a75.653,75.653,0,0,0,2.016,15.283c1.71,7.765,7.917,12.182,11.831,14.86,3.913-2.678,10.121-7.095,11.831-14.86a75.445,75.445,0,0,0,2.017-15.283c-.864-.266-2.789-.848-6.235-1.828-4.519-1.286-6.992-1.879-7.613-2.023-.621.145-3.094.737-7.614,2.023C156.389,31.686,154.464,32.267,153.6,32.534Z" transform="translate(-152.007 -26.909)" fill="#0070ff"/>
      </g>
      <g id="Group_21801" data-name="Group 21801" transform="translate(4.972 4.976)" opacity="0.177">
        <path id="Path_332" data-name="Path 332" d="M167.721,64.634a.587.587,0,0,1-.333-.1l-.1-.07c-3.789-2.593-10.841-7.419-12.728-16-2.277-10.358-2.05-16.074-2.039-16.312a.691.691,0,0,1,.454-.637c.018-.006,1.831-.593,6.813-2.013,5.28-1.5,7.786-2.067,7.81-2.073a.57.57,0,0,1,.25,0c.024.006,2.531.568,7.81,2.073,4.982,1.42,6.8,2.007,6.813,2.013a.69.69,0,0,1,.453.637c.011.238.238,5.954-2.039,16.312-1.887,8.584-8.939,13.41-12.728,16l-.1.07A.586.586,0,0,1,167.721,64.634ZM153.776,32.711a74.907,74.907,0,0,0,2.012,15.416c1.73,7.869,8.021,12.305,11.933,14.984,3.911-2.679,10.2-7.115,11.932-14.984a74.956,74.956,0,0,0,2.012-15.416c-.8-.248-2.732-.836-6.325-1.86-4.585-1.307-7.057-1.9-7.619-2.027-.563.131-3.034.72-7.62,2.027C156.508,31.875,154.574,32.463,153.776,32.711Z" transform="translate(-152.507 -27.408)" fill="#0070ff"/>
      </g>
      <g id="Group_21802" data-name="Group 21802" transform="translate(5.198 5.202)">
        <path id="Path_333" data-name="Path 333" d="M167.994,64.682a.436.436,0,0,1-.249-.078l-.1-.069c-3.753-2.573-10.737-7.361-12.6-15.851-2.261-10.305-2.036-15.981-2.026-16.217a.517.517,0,0,1,.339-.477c.018-.006,1.82-.591,6.777-2.006,5.252-1.5,7.743-2.059,7.767-2.065a.421.421,0,0,1,.187,0c.025.006,2.515.565,7.767,2.065,4.958,1.415,6.76,2,6.778,2.006a.517.517,0,0,1,.339.477c.011.236.235,5.912-2.026,16.217-1.863,8.49-8.848,13.278-12.6,15.851l-.1.069A.437.437,0,0,1,167.994,64.682ZM153.955,32.889a74.082,74.082,0,0,0,2.007,15.547c1.749,7.972,8.124,12.427,12.032,15.107,3.908-2.68,10.283-7.135,12.032-15.107a74.094,74.094,0,0,0,2.008-15.547c-.716-.224-2.651-.817-6.415-1.891-4.66-1.331-7.129-1.917-7.624-2.031-.5.115-2.964.7-7.625,2.031C156.607,32.072,154.671,32.665,153.955,32.889Z" transform="translate(-153.007 -27.908)" fill="#0070ff"/>
      </g>
      <g id="Group_21803" data-name="Group 21803" transform="translate(5.474 5.474)">
        <path id="Path_334" data-name="Path 334" d="M168.328,64.74a.264.264,0,0,1-.149-.047l-.1-.07c-3.708-2.548-10.611-7.291-12.446-15.669-2.242-10.24-2.012-16.045-2.009-16.1a.308.308,0,0,1,.2-.285c.018-.006,1.807-.588,6.733-2,5.217-1.493,7.689-2.05,7.713-2.055a.261.261,0,0,1,.111,0c.025.006,2.5.562,7.714,2.055,4.926,1.41,6.715,1.992,6.733,2a.309.309,0,0,1,.2.285c0,.057.233,5.863-2.009,16.1-1.834,8.378-8.737,13.121-12.445,15.669l-.1.07A.263.263,0,0,1,168.328,64.74ZM154.182,33.105a72.876,72.876,0,0,0,2,15.7c1.772,8.1,8.246,12.571,12.147,15.252,3.9-2.68,10.374-7.156,12.146-15.252a72.72,72.72,0,0,0,2-15.7c-.581-.184-2.506-.781-6.518-1.929-4.772-1.366-7.236-1.945-7.628-2.035-.392.09-2.856.67-7.628,2.035C156.688,32.324,154.763,32.922,154.182,33.105Z" transform="translate(-153.616 -28.509)" fill="#ddecff"/>
      </g>
      <g id="Group_21804" data-name="Group 21804" transform="translate(5.745 5.745)">
        <path id="Path_335" data-name="Path 335" d="M168.656,64.8a.084.084,0,0,1-.049-.016l-.1-.069c-3.922-2.7-10.485-7.22-12.291-15.486-2.223-10.175-2-15.929-1.993-15.987a.1.1,0,0,1,.067-.094c.017-.006,1.793-.585,6.688-1.989,5.183-1.486,7.635-2.04,7.659-2.045a.083.083,0,0,1,.037,0c.024.005,2.477.559,7.66,2.045,4.9,1.4,6.671,1.983,6.688,1.989a.1.1,0,0,1,.067.094c0,.057.23,5.812-1.993,15.987-1.806,8.266-8.369,12.786-12.291,15.486l-.1.069A.085.085,0,0,1,168.656,64.8ZM154.407,33.324c-.018.7-.09,6.332,1.99,15.853,1.787,8.183,8.31,12.675,12.208,15.358l.051.035.051-.035c3.9-2.684,10.42-7.175,12.208-15.358,2.081-9.526,2.009-15.154,1.99-15.853-.358-.115-2.238-.71-6.618-1.966-4.941-1.417-7.4-1.985-7.631-2.039-.235.053-2.69.622-7.631,2.039C156.645,32.614,154.765,33.209,154.407,33.324Z" transform="translate(-154.215 -29.109)" fill="#fff"/>
      </g>
    </g>
  </g>
</svg>
