<svg xmlns="http://www.w3.org/2000/svg" width="38.372" height="45.5" viewBox="0 0 38.372 45.5">
  <g id="Group_21774" data-name="Group 21774" transform="translate(-145 -493)">
    <g id="Group_21772" data-name="Group 21772" transform="translate(145 493)">
      <g id="Group_21746" data-name="Group 21746" transform="translate(0 0)" opacity="0">
        <path id="Path_284" data-name="Path 284" d="M44.931,62.776h0a4.415,4.415,0,0,1-3.215-1.39c-.471-.234-1.408-.605-2.121-.888-2.568-1.017-6.084-2.41-8.816-4.781a11.86,11.86,0,0,1-3.844-12.623c2.269-8.329,1.252-11.3.957-11.922a4.414,4.414,0,0,1-.967-6.789l3.344-3.6a4.275,4.275,0,0,1,3.112-1.537h.006a4.034,4.034,0,0,1,3.057,1.238,2.643,2.643,0,0,0,1.86.359c2.047-.315,2.214-.552,2.769-1.339.1-.135.192-.272.291-.408a4.414,4.414,0,0,1,7.137,0c.1.136.2.272.291.408.555.786.723,1.024,2.769,1.339a2.835,2.835,0,0,0,1.8-.3,4.414,4.414,0,0,1,6.231.24l3.343,3.6a4.414,4.414,0,0,1-.967,6.789c-.3.62-1.311,3.594.957,11.922a11.859,11.859,0,0,1-3.844,12.623c-2.732,2.371-6.249,3.764-8.816,4.781-.714.283-1.65.653-2.121.888A4.416,4.416,0,0,1,44.931,62.776ZM36.683,29.648c1,3.885.6,9.058-1.232,15.766-.671,2.464.237,4.042,7.393,6.876.742.294,1.44.57,2.086.859.646-.289,1.345-.566,2.087-.859,7.156-2.834,8.064-4.412,7.393-6.876-1.827-6.708-2.233-11.881-1.232-15.766a11.714,11.714,0,0,1-2.962-.084,14.613,14.613,0,0,1-5.286-1.717,14.608,14.608,0,0,1-5.286,1.717A11.729,11.729,0,0,1,36.683,29.648ZM36.5,20.54Z" transform="translate(-25.745 -17.276)" fill="#0070ff"/>
      </g>
      <g id="Group_21747" data-name="Group 21747" transform="translate(0.17 0.17)" opacity="0.001">
        <path id="Path_285" data-name="Path 285" d="M45.261,62.936h0a4.244,4.244,0,0,1-3.112-1.359c-.471-.238-1.432-.618-2.162-.907-2.556-1.012-6.057-2.4-8.767-4.751a11.7,11.7,0,0,1-3.791-12.451c2.328-8.547,1.22-11.5.922-12.088a4.244,4.244,0,0,1-.971-6.552l3.344-3.6a4.115,4.115,0,0,1,2.995-1.471h0a3.9,3.9,0,0,1,2.943,1.187,2.792,2.792,0,0,0,2,.4c2.118-.326,2.311-.6,2.882-1.408.1-.135.191-.271.29-.406a4.245,4.245,0,0,1,6.863,0c.1.135.194.271.29.406.572.81.764,1.082,2.882,1.408A2.892,2.892,0,0,0,53.809,21a4.244,4.244,0,0,1,5.992.23l3.343,3.6a4.244,4.244,0,0,1-.971,6.552c-.3.583-1.406,3.541.922,12.088A11.7,11.7,0,0,1,59.3,55.919c-2.71,2.352-6.211,3.739-8.767,4.752-.73.289-1.691.67-2.162.907A4.245,4.245,0,0,1,45.261,62.936ZM36.786,29.782c1.073,3.881.69,9.1-1.167,15.917-.784,2.878.9,4.466,7.494,7.079.779.308,1.5.593,2.149.885.654-.293,1.37-.577,2.149-.885,6.6-2.613,8.278-4.2,7.494-7.079-1.857-6.818-2.241-12.037-1.168-15.917a11.5,11.5,0,0,1-3.164-.055,14.3,14.3,0,0,1-5.312-1.749,14.3,14.3,0,0,1-5.312,1.749A11.5,11.5,0,0,1,36.786,29.782Zm-7.621,1.966h0Zm32.193,0h0Zm0,0h0Zm-32.2,0h0Zm7.552-10.751Z" transform="translate(-26.245 -17.776)" fill="#0070ff"/>
      </g>
      <g id="Group_21748" data-name="Group 21748" transform="translate(0.34 0.34)" opacity="0.002">
        <path id="Path_286" data-name="Path 286" d="M45.592,63.1h0a4.074,4.074,0,0,1-3.008-1.327c-.471-.241-1.456-.632-2.2-.928-2.545-1.008-6.03-2.388-8.719-4.722a11.4,11.4,0,0,1-3.739-12.278c2.389-8.772,1.184-11.709.883-12.256a4.075,4.075,0,0,1-.972-6.314l3.344-3.6a3.956,3.956,0,0,1,2.872-1.405A3.8,3.8,0,0,1,36.883,21.4a2.942,2.942,0,0,0,2.131.433c2.189-.337,2.409-.648,2.995-1.478.1-.134.19-.269.288-.4a4.075,4.075,0,0,1,6.588,0c.1.135.194.27.289.4.586.831.806,1.142,2.995,1.478a3.027,3.027,0,0,0,2.086-.385,4.074,4.074,0,0,1,5.752.221l3.344,3.6a4.075,4.075,0,0,1-.972,6.314c-.3.546-1.506,3.484.884,12.256a11.4,11.4,0,0,1-3.738,12.278c-2.689,2.333-6.174,3.714-8.719,4.722-.747.3-1.733.686-2.2.927A4.075,4.075,0,0,1,45.592,63.1ZM36.881,29.91c1.134,3.835.766,9.239-1.1,16.076-.815,2.992.889,4.625,7.6,7.281.8.319,1.543.611,2.211.914.669-.3,1.407-.6,2.212-.914,6.707-2.656,8.41-4.289,7.6-7.281-1.862-6.836-2.23-12.241-1.1-16.076a11.311,11.311,0,0,1-3.374-.02,13.981,13.981,0,0,1-5.337-1.783,13.977,13.977,0,0,1-5.337,1.783A11.308,11.308,0,0,1,36.881,29.91Zm-7.337,2.006.007,0Zm32.094,0-.007,0Zm-32.1,0,.006,0Zm32.109,0-.006,0Zm.006,0h0Zm-32.121,0h0Z" transform="translate(-26.745 -18.276)" fill="#0070ff"/>
      </g>
      <g id="Group_21749" data-name="Group 21749" transform="translate(0.509 0.509)" opacity="0.003">
        <path id="Path_287" data-name="Path 287" d="M45.922,63.257h0a3.905,3.905,0,0,1-2.9-1.294c-.47-.245-1.481-.645-2.246-.948-2.534-1-6-2.378-8.67-4.692a11.237,11.237,0,0,1-3.686-12.1c2.453-9.005,1.144-11.917.842-12.426a3.9,3.9,0,0,1-.97-6.072l3.343-3.6a3.8,3.8,0,0,1,2.75-1.341h.024a3.614,3.614,0,0,1,2.7,1.086,3.1,3.1,0,0,0,2.268.471c2.261-.348,2.491-.675,3.108-1.548.094-.134.189-.268.286-.4a3.905,3.905,0,0,1,6.314,0c.1.134.193.268.287.4.616.873.847,1.2,3.108,1.548A3.234,3.234,0,0,0,54.7,21.9a3.9,3.9,0,0,1,5.512.212l3.344,3.6a3.9,3.9,0,0,1-.97,6.072c-.3.509-1.61,3.421.842,12.426a11.238,11.238,0,0,1-3.686,12.1c-2.666,2.315-6.136,3.689-8.67,4.692-.765.3-1.776.7-2.246.948A3.906,3.906,0,0,1,45.922,63.257ZM36.969,30.03c1.221,3.818.878,9.28-1.018,16.241-.846,3.106.88,4.784,7.7,7.484.831.329,1.59.63,2.274.943.684-.313,1.443-.614,2.274-.943,6.816-2.7,8.543-4.378,7.7-7.484C54,39.31,53.654,33.847,54.874,30.03a11.109,11.109,0,0,1-3.59.022,13.661,13.661,0,0,1-5.363-1.818,13.659,13.659,0,0,1-5.363,1.818A11.11,11.11,0,0,1,36.969,30.03Zm-7.037,2.056h0Zm31.981,0h0Zm0,0h0Zm-31.987,0h0Zm31.991,0h0Zm-31.994,0h0Zm32,0h0ZM37.143,21.9Z" transform="translate(-27.245 -18.776)" fill="#0070ff"/>
      </g>
      <g id="Group_21750" data-name="Group 21750" transform="translate(0.679 0.679)" opacity="0.004">
        <path id="Path_288" data-name="Path 288" d="M46.252,63.418h0a3.736,3.736,0,0,1-2.8-1.26c-.469-.249-1.506-.66-2.29-.97-2.522-1-5.976-2.367-8.621-4.663A11.077,11.077,0,0,1,28.91,44.593c2.518-9.247,1.1-12.128.8-12.6a3.735,3.735,0,0,1-.966-5.828l3.344-3.6a3.637,3.637,0,0,1,2.628-1.277,3.45,3.45,0,0,1,2.607,1.036,3.252,3.252,0,0,0,2.405.509c2.332-.359,2.592-.728,3.221-1.618.094-.133.188-.266.285-.4a3.735,3.735,0,0,1,6.039,0c.1.133.192.267.286.4.629.891.889,1.259,3.22,1.618a3.346,3.346,0,0,0,2.368-.471,3.735,3.735,0,0,1,5.273.2l3.344,3.6a3.735,3.735,0,0,1-.965,5.828c-.3.472-1.72,3.353.8,12.6A11.076,11.076,0,0,1,59.96,56.525c-2.644,2.3-6.1,3.664-8.621,4.663-.784.31-1.821.721-2.29.97A3.736,3.736,0,0,1,46.252,63.418Zm-9.2-33.277.042.125c1.266,3.791.939,9.272-.972,16.29-.866,3.181.955,4.976,7.8,7.686.858.34,1.639.649,2.336.972.7-.323,1.479-.633,2.337-.972,6.842-2.71,8.664-4.506,7.8-7.686-1.912-7.018-2.239-12.5-.972-16.29.014-.042.028-.084.042-.125a10.907,10.907,0,0,1-3.816.073,13.353,13.353,0,0,1-5.389-1.837,13.351,13.351,0,0,1-5.389,1.837A10.928,10.928,0,0,1,37.047,30.141Zm-6.736,2.112.007,0Zm31.882,0-.007,0Zm-31.889,0,.006,0Zm31.9,0-.006,0Zm.006,0-.005,0Zm-31.908,0,0,0Z" transform="translate(-27.745 -19.276)" fill="#0070ff"/>
      </g>
      <g id="Group_21751" data-name="Group 21751" transform="translate(0.849 0.849)" opacity="0.006">
        <path id="Path_289" data-name="Path 289" d="M46.582,63.578h0a3.566,3.566,0,0,1-2.69-1.226c-.467-.252-1.531-.674-2.334-.992-2.511-.995-5.949-2.356-8.572-4.633A10.917,10.917,0,0,1,29.4,44.968c2.586-9.494,1.049-12.34.75-12.775a3.565,3.565,0,0,1-.957-5.582l3.344-3.6a3.477,3.477,0,0,1,2.507-1.214h.038a3.327,3.327,0,0,1,2.455.986,3.41,3.41,0,0,0,2.542.548c2.4-.37,2.695-.783,3.333-1.689.093-.132.187-.265.284-.4a3.566,3.566,0,0,1,5.765,0c.1.133.19.266.284.4.639.905.931,1.318,3.334,1.688a3.466,3.466,0,0,0,2.509-.514,3.565,3.565,0,0,1,5.033.194l3.343,3.6a3.565,3.565,0,0,1-.957,5.582c-.3.435-1.836,3.281.75,12.775a10.917,10.917,0,0,1-3.581,11.759C57.557,59,54.118,60.366,51.607,61.36c-.8.318-1.868.74-2.334.992A3.567,3.567,0,0,1,46.582,63.578ZM37.114,30.242c.05.133.1.269.145.408,1.256,3.758.928,9.206-.975,16.192-.9,3.293.949,5.136,7.9,7.888.885.351,1.687.668,2.4,1,.712-.334,1.514-.651,2.4-1,6.951-2.752,8.8-4.6,7.9-7.888-1.9-6.986-2.23-12.433-.975-16.192q.07-.21.145-.408A10.709,10.709,0,0,1,52,30.376,13.016,13.016,0,0,1,46.582,28.5a13.019,13.019,0,0,1-5.415,1.875A10.709,10.709,0,0,1,37.114,30.242ZM30.7,32.423h0Zm31.769,0h0Zm0,0h0Zm-31.775,0h0Zm31.779,0h0Zm-31.782,0h0Zm31.785,0h0Zm-31.788,0h0Zm31.791,0h0Zm-24.906-9.6Z" transform="translate(-28.245 -19.776)" fill="#0070ff"/>
      </g>
      <g id="Group_21752" data-name="Group 21752" transform="translate(1.019 1.019)" opacity="0.008">
        <path id="Path_290" data-name="Path 290" d="M46.912,63.739h0a3.4,3.4,0,0,1-2.582-1.191c-.463-.257-1.558-.69-2.38-1.016-2.5-.99-5.922-2.346-8.524-4.6A10.757,10.757,0,0,1,29.9,45.343c2.655-9.748.994-12.554.7-12.952a3.4,3.4,0,0,1-.945-5.334L33,23.454A3.316,3.316,0,0,1,35.38,22.3a3.189,3.189,0,0,1,2.377.935,3.623,3.623,0,0,0,2.681.589c2.474-.381,2.779-.813,3.446-1.758.093-.132.186-.263.282-.4a3.4,3.4,0,0,1,5.49,0c.1.132.19.265.283.4.668.946.972,1.377,3.446,1.758a3.654,3.654,0,0,0,2.649-.557,3.4,3.4,0,0,1,4.794.184l3.343,3.6a3.395,3.395,0,0,1-.945,5.334c-.3.4-1.956,3.2.7,12.952A10.756,10.756,0,0,1,60.4,56.929c-2.6,2.258-6.024,3.613-8.523,4.6-.822.326-1.916.759-2.38,1.016A3.4,3.4,0,0,1,46.912,63.739ZM37.167,30.33q.138.334.262.7c1.245,3.727.916,9.141-.978,16.094-1.029,3.778,1.76,5.62,8,8.091.913.362,1.736.688,2.461,1.032.726-.344,1.549-.671,2.462-1.032,6.241-2.472,9.03-4.313,8-8.091-1.894-6.952-2.223-12.367-.978-16.094.082-.247.17-.481.261-.7a10.527,10.527,0,0,1-4.3.209,12.7,12.7,0,0,1-5.441-1.915,12.693,12.693,0,0,1-5.441,1.915A10.529,10.529,0,0,1,37.167,30.33Zm-6.089,2.262.006,0Zm31.669,0-.006,0Zm.006,0-.006,0Zm-31.681,0,.005,0Zm31.687,0-.005,0Zm-31.693,0h0Zm31.7,0h0ZM37.788,23.269Z" transform="translate(-28.745 -20.276)" fill="#0070ff"/>
      </g>
      <g id="Group_21753" data-name="Group 21753" transform="translate(1.189 1.188)" opacity="0.01">
        <path id="Path_291" data-name="Path 291" d="M47.243,63.9h0a3.225,3.225,0,0,1-2.473-1.154c-.46-.261-1.584-.706-2.426-1.04-2.489-.985-5.9-2.335-8.475-4.574a10.6,10.6,0,0,1-3.476-11.413c2.726-10.007.934-12.77.643-13.132a3.226,3.226,0,0,1-.929-5.083l3.343-3.6a3.157,3.157,0,0,1,2.264-1.09,3.068,3.068,0,0,1,2.262.887,3.789,3.789,0,0,0,2.819.629c2.546-.392,2.884-.872,3.559-1.828.093-.131.185-.262.281-.394a3.226,3.226,0,0,1,5.215,0c.1.131.189.263.281.394.675.956,1.014,1.436,3.559,1.828a3.781,3.781,0,0,0,2.791-.6,3.226,3.226,0,0,1,4.554.175l3.344,3.6a3.226,3.226,0,0,1-.929,5.083c-.291.362-2.082,3.125.643,13.132a10.6,10.6,0,0,1-3.476,11.413c-2.579,2.239-5.987,3.588-8.475,4.574-.842.334-1.966.779-2.427,1.04A3.226,3.226,0,0,1,47.243,63.9Zm2.8-1.631v0ZM37.2,30.4a10.76,10.76,0,0,1,.4,1.017c1.234,3.694.9,9.076-.981,16-1.063,3.9,1.766,5.784,8.1,8.293.941.373,1.786.708,2.524,1.063.738-.356,1.583-.69,2.524-1.063,6.336-2.509,9.165-4.39,8.1-8.293-1.885-6.92-2.215-12.3-.981-16a10.8,10.8,0,0,1,.4-1.017,10.317,10.317,0,0,1-4.575.3,12.369,12.369,0,0,1-5.467-1.958A12.368,12.368,0,0,1,41.776,30.7,10.339,10.339,0,0,1,37.2,30.4Zm-5.74,2.36.006,0Zm31.569,0-.012,0Zm-31.575,0,.006,0Zm31.581,0-.005,0Zm-31.586,0h0Zm31.591,0h0Zm-31.6,0h0Z" transform="translate(-29.246 -20.776)" fill="#0070ff"/>
      </g>
      <g id="Group_21754" data-name="Group 21754" transform="translate(2.03 1.358)" opacity="0.013">
        <path id="Path_292" data-name="Path 292" d="M48.879,64.06h0a3.057,3.057,0,0,1-2.362-1.117,26.214,26.214,0,0,0-2.475-1.066C39.311,60,29.466,56.1,32.193,46.092c2.036-7.476,1.553-10.949,1.083-12.354a2.445,2.445,0,0,0-.522-.986c-.009-.009.03.016.049.028l.119.059c.052.019.235.092.235.092l.951-2.9-2.24-2.079,3.343-3.6a2.993,2.993,0,0,1,2.144-1.028,2.9,2.9,0,0,1,2.146.838,3.947,3.947,0,0,0,2.956.668c2.617-.4,2.97-.9,3.672-1.9.092-.13.184-.261.279-.392a3.056,3.056,0,0,1,4.941,0c.1.131.188.262.28.392.7,1,1.055,1.5,3.672,1.9a3.943,3.943,0,0,0,2.956-.668,2.9,2.9,0,0,1,2.146-.838,2.992,2.992,0,0,1,2.144,1.028l3.344,3.6a3.056,3.056,0,0,1-.909,4.829c-.285.328-2.213,3.044.584,13.315C68.293,56.1,58.448,60,53.717,61.877a26.443,26.443,0,0,0-2.475,1.066A3.056,3.056,0,0,1,48.879,64.06Zm2.656-1.545v0ZM38.516,30.45a10.243,10.243,0,0,1,.557,1.352c1.224,3.662.893,9.01-.983,15.9-1.1,4.028,1.771,5.949,8.2,8.5.97.384,1.836.727,2.586,1.094.75-.366,1.617-.71,2.587-1.094,6.432-2.547,9.3-4.468,8.2-8.5-1.876-6.886-2.207-12.235-.984-15.9a10.243,10.243,0,0,1,.557-1.352,10.117,10.117,0,0,1-4.871.413,12.036,12.036,0,0,1-5.493-2,12.03,12.03,0,0,1-5.493,2A10.124,10.124,0,0,1,38.516,30.45Zm26.092,2.479-.006,0Zm.012,0-.012,0Zm.005,0-.005,0Zm0,0h0Z" transform="translate(-31.724 -21.276)" fill="#0070ff"/>
      </g>
      <g id="Group_21755" data-name="Group 21755" transform="translate(2.203 1.528)" opacity="0.016">
        <path id="Path_293" data-name="Path 293" d="M49.215,64.22h0a2.887,2.887,0,0,1-2.25-1.079,25.116,25.116,0,0,0-2.524-1.092c-4.685-1.856-14.435-5.717-11.748-15.582,2.048-7.519,1.556-11.029,1.081-12.452a2.6,2.6,0,0,0-.566-1.056.733.733,0,0,1,.12.055c.047.017.219.086.219.086l.9-2.743-2.115-1.963,3.344-3.6a2.831,2.831,0,0,1,2.023-.968,2.756,2.756,0,0,1,2.03.79,4.1,4.1,0,0,0,3.094.708c2.689-.414,3.078-.966,3.786-1.968.091-.13.183-.26.278-.389a2.886,2.886,0,0,1,4.666,0c.1.13.187.26.279.39.707,1,1.1,1.554,3.785,1.968a4.108,4.108,0,0,0,3.094-.708,2.732,2.732,0,0,1,2.03-.79,2.831,2.831,0,0,1,2.023.968l3.344,3.6a2.886,2.886,0,0,1-.886,4.574c-.276.3-2.349,2.962.521,13.5,2.687,9.865-7.063,13.727-11.748,15.582a25.05,25.05,0,0,0-2.525,1.092A2.886,2.886,0,0,1,49.215,64.22Zm2.509-1.459v0Zm-5.017,0v0Zm-8.223-32.3a9.538,9.538,0,0,1,.764,1.721c1.212,3.629.881,8.945-.986,15.8-1.124,4.128,1.915,6.168,8.3,8.7,1.019.4,1.9.753,2.649,1.122.748-.369,1.631-.718,2.649-1.122,6.39-2.531,9.429-4.571,8.3-8.7-1.867-6.854-2.2-12.169-.986-15.8a9.513,9.513,0,0,1,.764-1.721,9.93,9.93,0,0,1-5.213.561,11.717,11.717,0,0,1-5.518-2.049A11.714,11.714,0,0,1,43.7,31.026,9.939,9.939,0,0,1,38.484,30.465ZM64.89,33.1l-.005,0Zm.005,0-.005,0Zm.005,0h0Zm0,0h0Z" transform="translate(-32.232 -21.776)" fill="#0070ff"/>
      </g>
      <g id="Group_21756" data-name="Group 21756" transform="translate(1.698 1.698)" opacity="0.019">
        <path id="Path_294" data-name="Path 294" d="M48.233,64.381h0A2.718,2.718,0,0,1,46.1,63.342a24.063,24.063,0,0,0-2.576-1.119c-2.454-.972-5.815-2.3-8.328-4.485a10.114,10.114,0,0,1-3.318-10.9c2.943-10.8.722-13.422.454-13.686a2.717,2.717,0,0,1-.858-4.317l3.344-3.6a2.666,2.666,0,0,1,1.9-.908,2.59,2.59,0,0,1,1.913.742,4.262,4.262,0,0,0,3.233.748c2.76-.425,3.164-1,3.9-2.038.091-.129.182-.258.277-.387a2.716,2.716,0,0,1,4.392,0c.094.129.186.259.277.388.734,1.04,1.139,1.613,3.9,2.038a4.26,4.26,0,0,0,3.233-.748,2.57,2.57,0,0,1,1.913-.742,2.667,2.667,0,0,1,1.9.908L65,28.84a2.717,2.717,0,0,1-.858,4.317c-.267.264-2.488,2.881.455,13.686a10.116,10.116,0,0,1-3.318,10.9c-2.514,2.182-5.875,3.513-8.329,4.485a24.016,24.016,0,0,0-2.576,1.12A2.717,2.717,0,0,1,48.233,64.381Zm2.361-1.373v0Zm-4.722,0v0ZM37.22,30.631c1.566,2.577,2.612,7.667-.1,17.639-1.158,4.251,1.922,6.333,8.406,8.9,1.05.416,1.953.774,2.711,1.154.758-.38,1.662-.738,2.712-1.154,6.483-2.568,9.564-4.649,8.405-8.9-2.716-9.972-1.67-15.062-.1-17.639l-.09-.1a9.76,9.76,0,0,1-5.379.655,11.392,11.392,0,0,1-5.544-2.1,11.386,11.386,0,0,1-5.544,2.1,9.756,9.756,0,0,1-5.379-.655Zm-4.609,2.637.005,0Zm31.26-.005-.021.007Zm-31.265,0,0,0Zm-.005,0,0,0Zm0,0h0Zm31.279,0h0Z" transform="translate(-30.745 -22.276)" fill="#0070ff"/>
      </g>
      <g id="Group_21757" data-name="Group 21757" transform="translate(2.369 1.868)" opacity="0.023">
        <path id="Path_295" data-name="Path 295" d="M49.538,64.541h0a2.546,2.546,0,0,1-2.021-1,22.864,22.864,0,0,0-2.628-1.149,28.32,28.32,0,0,1-8.28-4.455,9.954,9.954,0,0,1-3.266-10.722c2.072-7.605,1.563-11.189,1.075-12.649l-.444-1.13c-.358-.911-1.74-3.435-1.074-4.152l3.344-3.6a2.5,2.5,0,0,1,1.783-.848,2.455,2.455,0,0,1,1.8.694,4.427,4.427,0,0,0,3.371.789c2.831-.436,3.275-1.065,4.011-2.108.091-.128.181-.257.275-.385a2.547,2.547,0,0,1,4.118,0c.093.129.185.258.275.386.736,1.043,1.18,1.672,4.011,2.108a4.383,4.383,0,0,0,3.355-.773,2.546,2.546,0,0,1,3.6.138l3.343,3.6a2.547,2.547,0,0,1-.827,4.057c-.257.235-2.632,2.8.384,13.875a9.954,9.954,0,0,1-3.266,10.722,28.312,28.312,0,0,1-8.28,4.455,22.9,22.9,0,0,0-2.629,1.149A2.546,2.546,0,0,1,49.538,64.541Zm2.214-1.288h0Zm-4.427,0h0ZM38.316,30.936c1.58,2.5,2.688,7.536-.058,17.619-1.192,4.375,1.93,6.5,8.507,9.1,1.083.429,2.007.795,2.774,1.186.767-.391,1.692-.758,2.774-1.186,6.577-2.605,9.7-4.728,8.507-9.1-2.747-10.084-1.639-15.122-.059-17.619l-.256-.275a9.59,9.59,0,0,1-5.4.69,10.994,10.994,0,0,1-5.57-2.137,10.991,10.991,0,0,1-5.57,2.137,9.591,9.591,0,0,1-5.4-.69Zm26.806,2.495-.019.006Zm0,0h0Zm.245-.107Z" transform="translate(-32.721 -22.776)" fill="#0070ff"/>
      </g>
      <g id="Group_21758" data-name="Group 21758" transform="translate(2.037 2.037)" opacity="0.028">
        <path id="Path_296" data-name="Path 296" d="M48.894,64.7h0a2.378,2.378,0,0,1-1.9-.954,21.807,21.807,0,0,0-2.683-1.18,28.186,28.186,0,0,1-8.231-4.426,9.794,9.794,0,0,1-3.213-10.549c3.053-11.208.55-13.975.52-13.985a2.376,2.376,0,0,1-1-3.876l3.343-3.6a2.338,2.338,0,0,1,1.663-.789,2.292,2.292,0,0,1,1.679.646,4.573,4.573,0,0,0,3.51.83c2.9-.447,3.362-1.1,4.124-2.178.09-.127.181-.255.274-.383a2.377,2.377,0,0,1,3.843,0c.093.128.184.256.274.384.762,1.079,1.222,1.731,4.124,2.178a4.562,4.562,0,0,0,3.5-.816,2.377,2.377,0,0,1,3.355.129l3.344,3.6a2.376,2.376,0,0,1-.792,3.8c-.245.208-2.779,2.726.31,14.065a9.793,9.793,0,0,1-3.214,10.549,28.18,28.18,0,0,1-8.231,4.426A21.755,21.755,0,0,0,50.8,63.747,2.378,2.378,0,0,1,48.894,64.7Zm2.066-1.2v0Zm-4.132,0,0,0ZM37.461,31.244c1.592,2.412,2.767,7.394-.012,17.6-1.225,4.5,1.937,6.664,8.608,9.306,1.117.442,2.063.817,2.837,1.22.775-.4,1.72-.778,2.837-1.22,6.671-2.642,9.834-4.807,8.608-9.306-2.779-10.2-1.6-15.185-.012-17.6l-.424-.457a9.412,9.412,0,0,1-5.413.726,10.67,10.67,0,0,1-5.6-2.194,10.665,10.665,0,0,1-5.6,2.194,9.418,9.418,0,0,1-5.413-.726ZM64.41,33.605h0Zm.009,0-.009,0Zm0,0h0Zm0,0h0Z" transform="translate(-31.745 -23.276)" fill="#0070ff"/>
      </g>
      <g id="Group_21759" data-name="Group 21759" transform="translate(2.207 2.207)" opacity="0.032">
        <path id="Path_297" data-name="Path 297" d="M49.224,64.862h0a2.207,2.207,0,0,1-1.785-.91A20.733,20.733,0,0,0,44.7,62.739a28.053,28.053,0,0,1-8.182-4.4,9.634,9.634,0,0,1-3.161-10.377c3.146-11.549.441-14.181.409-14.191a2.207,2.207,0,0,1-.931-3.6l3.343-3.6a2.176,2.176,0,0,1,1.543-.73,2.1,2.1,0,0,1,1.561.6,4.734,4.734,0,0,0,3.649.87c2.974-.458,3.476-1.17,4.237-2.247.089-.127.179-.254.272-.382a2.208,2.208,0,0,1,3.569,0c.093.128.183.255.273.382.761,1.078,1.263,1.789,4.236,2.247a4.746,4.746,0,0,0,3.637-.859,2.207,2.207,0,0,1,3.116.12l3.344,3.6a2.207,2.207,0,0,1-.753,3.532c-.232.184-2.929,2.654.232,14.258a9.634,9.634,0,0,1-3.161,10.377,28.05,28.05,0,0,1-8.182,4.4,20.774,20.774,0,0,0-2.739,1.213A2.207,2.207,0,0,1,49.224,64.862Zm1.918-1.116v0Zm-3.837,0v0ZM37.578,31.554c1.6,2.323,2.85,7.243.037,17.573-1.38,5.066,2.931,7.22,8.709,9.509a30.057,30.057,0,0,1,2.9,1.254,30.1,30.1,0,0,1,2.9-1.254c5.779-2.289,10.09-4.442,8.71-9.509-2.813-10.33-1.567-15.25.036-17.573l-.6-.642a9.236,9.236,0,0,1-5.428.764,10.344,10.344,0,0,1-5.622-2.254A10.345,10.345,0,0,1,43.6,31.676a9.248,9.248,0,0,1-5.429-.764Zm27.108,2.22h0Zm0,0h0Zm0,0h0Z" transform="translate(-32.245 -23.776)" fill="#0070ff"/>
      </g>
      <g id="Group_21760" data-name="Group 21760" transform="translate(2.233 2.377)" opacity="0.038">
        <path id="Path_298" data-name="Path 298" d="M49.274,65.022h0a2.036,2.036,0,0,1-1.664-.862,19.619,19.619,0,0,0-2.8-1.249c-4.8-1.9-13.729-5.438-11.242-14.57,3.081-11.311.623-14.044.2-14.414a1.771,1.771,0,0,1-1.36-1.277,2.048,2.048,0,0,1,.6-2.027l3.344-3.6a2.037,2.037,0,0,1,2.876-.11,4.889,4.889,0,0,0,3.778.9c3.045-.469,3.564-1.2,4.35-2.317.089-.126.179-.253.271-.379a2.037,2.037,0,0,1,3.294,0c.092.127.182.253.271.38.785,1.113,1.3,1.848,4.349,2.317a4.876,4.876,0,0,0,3.8-.922,2.012,2.012,0,0,1,2.854.13l3.344,3.6a2.049,2.049,0,0,1,.6,2.027,1.771,1.771,0,0,1-1.36,1.277c-.426.37-2.883,3.1.2,14.414,2.487,9.132-6.444,12.67-11.242,14.57a19.608,19.608,0,0,0-2.8,1.249A2.037,2.037,0,0,1,49.274,65.022Zm1.771-1.03v0Zm-3.542,0v0ZM37.414,31.866c1.613,2.228,2.938,7.08.087,17.546-1.414,5.193,3.153,7.47,8.811,9.711a28.426,28.426,0,0,1,2.962,1.289,28.573,28.573,0,0,1,2.962-1.289c5.658-2.241,10.225-4.518,8.811-9.711-2.85-10.466-1.526-15.318.088-17.546l-.774-.834a9.271,9.271,0,0,1-5.439.806c-2.933-.452-4.533-1.284-5.647-2.318-1.114,1.034-2.714,1.866-5.647,2.318a9.267,9.267,0,0,1-5.439-.806Zm-3.546,2.079Zm30.811,0Z" transform="translate(-32.321 -24.276)" fill="#0070ff"/>
      </g>
      <g id="Group_21761" data-name="Group 21761" transform="translate(2.429 2.547)" opacity="0.044">
        <path id="Path_299" data-name="Path 299" d="M49.654,65.183h0a1.867,1.867,0,0,1-1.541-.813,18.6,18.6,0,0,0-2.858-1.286C40.506,61.2,31.667,57.7,34.115,48.716c2.8-10.28,1.093-13.976.122-14.615a1.644,1.644,0,0,1-1.262-1.189,1.875,1.875,0,0,1,.54-1.845l3.344-3.6a1.867,1.867,0,0,1,2.636-.1,5.048,5.048,0,0,0,3.919.945c3.116-.479,3.681-1.28,4.463-2.387.089-.126.177-.252.269-.378a1.868,1.868,0,0,1,3.02,0c.092.126.181.252.27.378.782,1.107,1.346,1.907,4.462,2.387a5.021,5.021,0,0,0,3.919-.945,1.868,1.868,0,0,1,2.636.1l3.343,3.6a1.875,1.875,0,0,1,.54,1.845A1.644,1.644,0,0,1,65.073,34.1c-.971.638-2.678,4.335.122,14.615C67.642,57.7,58.8,61.2,54.054,63.084A18.592,18.592,0,0,0,51.2,64.37,1.868,1.868,0,0,1,49.654,65.183Zm1.623-.944v0Zm-3.247,0v0ZM37.554,32.206a7.883,7.883,0,0,1,1.167,2.284c1.148,3.435.81,8.552-1,15.208-1.451,5.328,3.177,7.642,8.912,9.913a26.951,26.951,0,0,1,3.024,1.326,26.959,26.959,0,0,1,3.024-1.326c5.735-2.271,10.364-4.585,8.912-9.913-1.813-6.656-2.15-11.773-1-15.208a7.9,7.9,0,0,1,1.167-2.284l-.982-1.058A8.94,8.94,0,0,1,55.328,32c-2.991-.46-4.573-1.32-5.673-2.386-1.1,1.065-2.682,1.926-5.673,2.386a8.941,8.941,0,0,1-5.446-.853ZM34.3,34.113h0Zm30.706,0Z" transform="translate(-32.897 -24.776)" fill="#0070ff"/>
      </g>
      <g id="Group_21762" data-name="Group 21762" transform="translate(2.621 2.716)" opacity="0.051">
        <path id="Path_300" data-name="Path 300" d="M50.029,65.343h0a1.7,1.7,0,0,1-1.416-.761,17.458,17.458,0,0,0-2.921-1.326c-4.7-1.861-13.447-5.326-11.039-14.165,2.861-10.5,1.035-14.211.025-14.819a1.516,1.516,0,0,1-1.146-1.093,1.7,1.7,0,0,1,.481-1.665l3.344-3.6a1.7,1.7,0,0,1,2.4-.092,5.2,5.2,0,0,0,4.061.988c3.187-.491,3.769-1.316,4.575-2.457.088-.125.177-.25.268-.376a1.7,1.7,0,0,1,2.745,0c.091.125.18.251.268.376.806,1.142,1.388,1.966,4.575,2.457a5.2,5.2,0,0,0,4.06-.988,1.7,1.7,0,0,1,2.4.092l3.343,3.6a1.7,1.7,0,0,1,.481,1.665,1.515,1.515,0,0,1-1.146,1.093c-1.01.608-2.835,4.317.025,14.819,2.408,8.839-6.34,12.3-11.039,14.165a17.47,17.47,0,0,0-2.922,1.326A1.7,1.7,0,0,1,50.029,65.343Zm1.476-.858h0Zm-2.951,0v0ZM37.707,32.525a7.606,7.606,0,0,1,1.228,2.349c1.137,3.4.8,8.486-1.005,15.11-1.488,5.464,3.2,7.814,9.013,10.116a25.287,25.287,0,0,1,3.087,1.363A25.358,25.358,0,0,1,53.116,60.1c5.812-2.3,10.5-4.652,9.014-10.116-1.8-6.623-2.143-11.707-1.006-15.11a7.62,7.62,0,0,1,1.228-2.349l-1.166-1.256a8.772,8.772,0,0,1-5.458.894c-3.074-.473-4.61-1.339-5.7-2.451-1.088,1.112-2.624,1.977-5.7,2.451a8.773,8.773,0,0,1-5.458-.894Zm-2.977,1.757Zm30.6,0Z" transform="translate(-33.464 -25.276)" fill="#0070ff"/>
      </g>
      <g id="Group_21763" data-name="Group 21763" transform="translate(2.886 2.886)" opacity="0.059">
        <path id="Path_301" data-name="Path 301" d="M50.545,65.5h0a1.528,1.528,0,0,1-1.287-.7,16.407,16.407,0,0,0-2.987-1.37c-4.65-1.842-13.305-5.27-10.937-13.963,3.472-12.748,0-15-.035-15.015a1.528,1.528,0,0,1-.644-2.491L38,28.357a1.528,1.528,0,0,1,2.157-.083,5.369,5.369,0,0,0,4.2,1.032c3.258-.5,3.858-1.351,4.688-2.527.088-.124.176-.249.267-.374a1.528,1.528,0,0,1,2.471,0c.091.125.179.249.267.374.83,1.176,1.429,2.025,4.688,2.527a5.384,5.384,0,0,0,4.2-1.032,1.528,1.528,0,0,1,2.157.083l3.344,3.6a1.529,1.529,0,0,1,.424,1.488,1.382,1.382,0,0,1-1.029.995c-1.05.581-2.993,4.3-.074,15.023,2.368,8.693-6.288,12.121-10.938,13.963a16.459,16.459,0,0,0-2.988,1.37A1.527,1.527,0,0,1,50.545,65.5Zm1.328-.772h0Zm-2.656,0h0ZM38,32.847a7.35,7.35,0,0,1,1.291,2.41c1.126,3.371.786,8.421-1.008,15.011-1.525,5.6,3.226,7.985,9.115,10.318a23.8,23.8,0,0,1,3.149,1.4,23.85,23.85,0,0,1,3.149-1.4c5.889-2.332,10.64-4.719,9.115-10.318-1.795-6.59-2.134-11.641-1.008-15.011a7.333,7.333,0,0,1,1.291-2.411l-1.354-1.459a8.6,8.6,0,0,1-5.468.937c-3.14-.484-4.649-1.38-5.725-2.53-1.076,1.15-2.585,2.046-5.725,2.53a8.6,8.6,0,0,1-5.468-.937Zm27.794,1.6Z" transform="translate(-34.245 -25.776)" fill="#0070ff"/>
      </g>
      <g id="Group_21764" data-name="Group 21764" transform="translate(3.056 3.056)" opacity="0.068">
        <path id="Path_302" data-name="Path 302" d="M50.875,65.664h0a1.358,1.358,0,0,1-1.155-.645A15.39,15.39,0,0,0,46.664,63.6c-4.6-1.822-13.165-5.214-10.837-13.76,3.571-13.112-.107-15.208-.146-15.221a1.358,1.358,0,0,1-.572-2.215l3.343-3.6a1.358,1.358,0,0,1,1.917-.074A5.519,5.519,0,0,0,44.711,29.8c3.33-.512,3.979-1.433,4.8-2.6.087-.124.175-.248.265-.371a1.358,1.358,0,0,1,2.2,0c.09.124.178.248.266.372.822,1.164,1.471,2.084,4.8,2.6a5.577,5.577,0,0,0,4.342-1.075A1.358,1.358,0,0,1,63.3,28.8l3.344,3.6a1.358,1.358,0,0,1,.369,1.314,1.246,1.246,0,0,1-.905.892c-.347.2-3.641,2.531-.182,15.229,2.328,8.546-6.236,11.938-10.837,13.76a15.337,15.337,0,0,0-3.057,1.419A1.359,1.359,0,0,1,50.875,65.664Zm1.181-.687h0Zm-2.361,0h0ZM38.1,33.173c1.589,1.806,3.357,6.326.346,17.382-1.56,5.727,3.469,8.244,9.216,10.521a22.328,22.328,0,0,1,3.212,1.442,22.363,22.363,0,0,1,3.212-1.442C59.834,58.8,64.863,56.282,63.3,50.555c-3.011-11.055-1.243-15.576.345-17.382L62.1,31.507a8.42,8.42,0,0,1-5.477.981c-3.209-.494-4.685-1.424-5.751-2.616-1.065,1.192-2.541,2.121-5.751,2.616a8.426,8.426,0,0,1-5.477-.981ZM66.07,34.62Z" transform="translate(-34.746 -26.276)" fill="#0070ff"/>
      </g>
      <g id="Group_21765" data-name="Group 21765" transform="translate(3.183 3.226)" opacity="0.079">
        <path id="Path_303" data-name="Path 303" d="M51.121,65.825h0a1.189,1.189,0,0,1-1.021-.58,14.3,14.3,0,0,0-3.129-1.472C42.1,61.844,33.949,58.615,36.236,50.216c3.542-13,.029-15.262-.284-15.433a1.1,1.1,0,0,1-.79-.788,1.186,1.186,0,0,1,.317-1.143l3.344-3.6a1.189,1.189,0,0,1,1.677-.065A5.686,5.686,0,0,0,44.983,30.3c3.4-.524,4.069-1.47,4.914-2.667.087-.123.174-.246.263-.369a1.188,1.188,0,0,1,1.922,0c.09.123.177.247.264.37.845,1.2,1.513,2.143,4.913,2.666a5.769,5.769,0,0,0,4.484-1.118,1.188,1.188,0,0,1,1.677.065l3.344,3.6a1.188,1.188,0,0,1,.316,1.143,1.1,1.1,0,0,1-.79.788c-.313.171-3.826,2.429-.284,15.433,2.288,8.4-5.864,11.628-10.735,13.558a14.289,14.289,0,0,0-3.129,1.472A1.189,1.189,0,0,1,51.121,65.825Zm1.033-.6,0,.006Zm-2.066,0,0,.006ZM38.122,33.5c1.577,1.674,3.477,6.075.408,17.343-1.6,5.863,3.5,8.418,9.318,10.723a20.887,20.887,0,0,1,3.274,1.484A20.914,20.914,0,0,1,54.4,61.564C60.217,59.258,65.31,56.7,63.713,50.84c-3.069-11.268-1.168-15.669.408-17.343l-1.739-1.874A8.246,8.246,0,0,1,56.9,32.651c-3.411-.525-4.846-1.591-5.777-2.692-.93,1.1-2.366,2.167-5.776,2.692a8.25,8.25,0,0,1-5.484-1.027ZM35.98,34.789h0Zm30.283,0Z" transform="translate(-35.118 -26.776)" fill="#0070ff"/>
      </g>
      <g id="Group_21766" data-name="Group 21766" transform="translate(3.396 3.395)" opacity="0.093">
        <path id="Path_304" data-name="Path 304" d="M51.533,65.989h0a1.018,1.018,0,0,1-.878-.513,13.221,13.221,0,0,0-3.205-1.531c-4.818-1.908-12.882-5.1-10.634-13.355,3.712-13.63-.325-15.619-.368-15.633a1.019,1.019,0,0,1-.43-1.661l3.344-3.6a1.018,1.018,0,0,1,1.438-.055A5.847,5.847,0,0,0,45.423,30.8c3.473-.535,4.193-1.555,5.027-2.737.086-.122.173-.245.262-.367a1.019,1.019,0,0,1,1.647,0c.09.123.176.245.263.368.834,1.182,1.554,2.2,5.026,2.737a5.832,5.832,0,0,0,4.625-1.161,1.019,1.019,0,0,1,1.438.055l3.343,3.6a1.018,1.018,0,0,1,.267.974.958.958,0,0,1-.677.681c-.277.141-4.011,2.33-.387,15.638,2.248,8.253-5.816,11.447-10.635,13.355a13.1,13.1,0,0,0-3.207,1.534A1.01,1.01,0,0,1,51.533,65.989ZM38.305,33.827c1.556,1.532,3.609,5.794.475,17.3-1.634,6,3.523,8.591,9.418,10.926a19.408,19.408,0,0,1,3.337,1.529,19.444,19.444,0,0,1,3.337-1.529c5.9-2.335,11.053-4.928,9.419-10.926-3.134-11.505-1.081-15.767.475-17.3l-1.938-2.089a8.064,8.064,0,0,1-5.489,1.075c-3.512-.541-4.893-1.66-5.8-2.792-.91,1.132-2.29,2.251-5.8,2.792a8.064,8.064,0,0,1-5.489-1.075Z" transform="translate(-35.745 -27.276)" fill="#0070ff"/>
      </g>
      <g id="Group_21767" data-name="Group 21767" transform="translate(3.565 3.565)" opacity="0.113">
        <path id="Path_305" data-name="Path 305" d="M51.866,66.133a.861.861,0,0,1-.738-.417c-.229-.387-2-1.087-3.286-1.6C43.077,62.231,35.1,59.072,37.309,50.965c3.753-13.779-.435-15.824-.479-15.839a.849.849,0,0,1-.358-1.384l3.344-3.6a.849.849,0,0,1,1.2-.046,6.006,6.006,0,0,0,4.766,1.2c3.544-.546,4.284-1.593,5.14-2.807.086-.122.172-.243.261-.365a.849.849,0,0,1,1.373,0c.089.122.175.244.261.366.856,1.213,1.6,2.261,5.139,2.806a6.02,6.02,0,0,0,4.766-1.2.849.849,0,0,1,1.2.046l3.343,3.6a.849.849,0,0,1-.358,1.384c-.02.009-4.279,1.888-.479,15.839,2.208,8.107-5.768,11.265-10.533,13.153-1.291.511-3.058,1.211-3.287,1.6A.86.86,0,0,1,51.866,66.133ZM38.4,34.161c1.525,1.377,3.754,5.475.547,17.251-1.67,6.133,3.55,8.763,9.52,11.128a17.948,17.948,0,0,1,3.4,1.577,17.968,17.968,0,0,1,3.4-1.577c5.97-2.364,11.19-4.994,9.52-11.128-3.207-11.777-.978-15.874.546-17.251L63.187,31.85a7.874,7.874,0,0,1-5.493,1.126c-3.642-.561-4.916-1.7-5.828-2.9-.911,1.2-2.186,2.337-5.828,2.9a7.883,7.883,0,0,1-5.493-1.126Z" transform="translate(-36.245 -27.776)" fill="#0070ff"/>
      </g>
      <g id="Group_21768" data-name="Group 21768" transform="translate(3.742 3.735)" opacity="0.177">
        <path id="Path_306" data-name="Path 306" d="M52.21,66.306h0a.679.679,0,0,1-.59-.344c-.247-.435-1.907-1.092-3.372-1.672-4.713-1.866-12.6-4.99-10.431-12.95,3.857-14.162-.56-16.033-.605-16.05a.693.693,0,0,1-.426-.483.68.68,0,0,1,.156-.619l3.343-3.6a.679.679,0,0,1,.959-.037A6.165,6.165,0,0,0,46.149,31.8c3.615-.557,4.374-1.632,5.252-2.877.085-.121.171-.242.259-.363a.679.679,0,0,1,1.1,0c.088.122.174.243.259.364.879,1.245,1.638,2.32,5.252,2.876a6.167,6.167,0,0,0,4.909-1.249.681.681,0,0,1,.956.039l3.344,3.6a.679.679,0,0,1-.287,1.107c-.03.012-4.446,1.883-.589,16.045,2.168,7.96-5.719,11.083-10.432,12.95-1.464.58-3.124,1.237-3.371,1.672A.68.68,0,0,1,52.21,66.306ZM38.49,34.515a5.775,5.775,0,0,1,1.659,2.663c1.072,3.208.728,8.093-1.022,14.519-1.848,6.788,4.78,9.413,9.621,11.33a16.432,16.432,0,0,1,3.462,1.628,16.453,16.453,0,0,1,3.462-1.628c4.84-1.917,11.47-4.543,9.621-11.33-1.75-6.426-2.094-11.311-1.022-14.519a5.775,5.775,0,0,1,1.659-2.663L63.558,31.96a7.694,7.694,0,0,1-5.495,1.178c-3.757-.579-4.949-1.782-5.854-3.014-.905,1.233-2.1,2.436-5.854,3.014a7.7,7.7,0,0,1-5.495-1.178Z" transform="translate(-36.766 -28.276)" fill="#0070ff"/>
      </g>
      <g id="Group_21769" data-name="Group 21769" transform="translate(3.909 3.917)">
        <path id="Path_307" data-name="Path 307" d="M52.534,66.49h0a.509.509,0,0,1-.442-.258c-.277-.486-1.894-1.127-3.457-1.746-4.66-1.845-12.458-4.934-10.33-12.748,3.914-14.372-.662-16.236-.709-16.253a.516.516,0,0,1-.324-.361.511.511,0,0,1,.117-.467l3.343-3.6a.509.509,0,0,1,.719-.028,6.325,6.325,0,0,0,5.048,1.29c3.686-.567,4.464-1.67,5.366-2.947.085-.12.17-.241.257-.361a.528.528,0,0,1,.824,0c.088.121.173.241.258.362.9,1.277,1.679,2.379,5.365,2.946a6.318,6.318,0,0,0,5.049-1.291.511.511,0,0,1,.718.029l3.344,3.6a.51.51,0,0,1-.215.831c-.038.014-4.615,1.879-.7,16.251,2.128,7.813-5.671,10.9-10.33,12.748-1.564.619-3.18,1.259-3.457,1.746A.51.51,0,0,1,52.534,66.49Zm-13.97-31.6c1.355,1.04,4.087,4.77.724,17.117-1.889,6.934,5.1,9.7,9.722,11.533a14.983,14.983,0,0,1,3.524,1.689,14.993,14.993,0,0,1,3.525-1.689c4.624-1.831,11.611-4.6,9.723-11.533-3.363-12.348-.632-16.077.723-17.117l-2.6-2.8a7.5,7.5,0,0,1-5.494,1.233c-3.88-.6-4.973-1.867-5.88-3.136-.907,1.27-2,2.539-5.88,3.136A7.5,7.5,0,0,1,41.16,32.09Z" transform="translate(-37.257 -28.811)" fill="#0070ff"/>
      </g>
      <g id="Group_21770" data-name="Group 21770" transform="translate(4.11 4.116)">
        <path id="Path_308" data-name="Path 308" d="M52.925,66.673h0a.306.306,0,0,1-.266-.155c-.312-.548-1.817-1.145-3.558-1.834-4.894-1.938-12.289-4.867-10.209-12.5,3.983-14.624-.788-16.482-.837-16.5a.308.308,0,0,1-.126-.5l3.344-3.6a.306.306,0,0,1,.431-.017,6.628,6.628,0,0,0,5.218,1.342c3.772-.581,4.612-1.771,5.5-3.03.084-.12.169-.239.256-.359a.317.317,0,0,1,.494,0c.087.12.172.24.256.359.889,1.26,1.729,2.449,5.5,3.03a6.645,6.645,0,0,0,5.217-1.342.307.307,0,0,1,.431.017l3.343,3.6a.306.306,0,0,1-.129.5c-.046.016-4.816,1.874-.834,16.5,2.08,7.638-5.315,10.566-10.208,12.5-1.742.69-3.247,1.286-3.559,1.834A.306.306,0,0,1,52.925,66.673ZM38.65,35.3c1.191.765,4.354,4.1.832,17.035-1.936,7.11,5.153,9.918,9.844,11.776a12.944,12.944,0,0,1,3.6,1.77,12.952,12.952,0,0,1,3.6-1.77C61.216,62.258,68.3,59.45,66.369,52.34c-3.522-12.932-.36-16.27.831-17.035l-2.875-3.1a7.255,7.255,0,0,1-5.489,1.3c-4.028-.62-4.983-1.973-5.907-3.281l0-.006,0,.005c-.924,1.309-1.879,2.662-5.907,3.282a7.253,7.253,0,0,1-5.489-1.3Z" transform="translate(-37.849 -29.397)" fill="#ddecff"/>
      </g>
      <g id="Group_21771" data-name="Group 21771" transform="translate(4.313 4.315)">
        <path id="Path_309" data-name="Path 309" d="M53.319,66.856h0a.1.1,0,0,1-.088-.051c-.348-.611-1.81-1.19-3.661-1.924-4.826-1.911-12.119-4.8-10.087-12.261,4.052-14.877-.917-16.728-.967-16.745a.1.1,0,0,1-.067-.071.1.1,0,0,1,.024-.094l3.343-3.6a.1.1,0,0,1,.144-.005,6.844,6.844,0,0,0,5.386,1.394c3.858-.594,4.722-1.818,5.636-3.114.084-.118.168-.238.254-.357a.106.106,0,0,1,.164,0c.087.119.171.238.255.357.915,1.3,1.779,2.52,5.636,3.114A6.848,6.848,0,0,0,64.678,32.1a.1.1,0,0,1,.144.005l3.344,3.6a.1.1,0,0,1-.042.166c-.051.017-5.019,1.869-.967,16.745,2.033,7.462-5.261,10.35-10.087,12.262-1.851.733-3.313,1.312-3.661,1.923A.1.1,0,0,1,53.319,66.856ZM38.721,35.74c.832.4,4.732,3.077.958,16.933-1.984,7.286,5.207,10.134,9.966,12.019,1.766.7,3.184,1.261,3.674,1.881.49-.62,1.909-1.182,3.675-1.881,4.758-1.885,11.95-4.733,9.966-12.019-3.774-13.856.125-16.532.958-16.933l-3.178-3.425a7.1,7.1,0,0,1-5.478,1.379c-3.942-.607-4.83-1.865-5.771-3.2l-.17-.24-.17.24c-.94,1.332-1.828,2.591-5.772,3.2A7.1,7.1,0,0,1,41.9,32.316Z" transform="translate(-38.446 -29.984)" fill="#fff"/>
      </g>
    </g>
  </g>
</svg>
