<?xml version="1.0" encoding="UTF-8"?> <svg xmlns="http://www.w3.org/2000/svg" xmlns:xlink="http://www.w3.org/1999/xlink" width="138px" height="121px" viewBox="0 0 138 121"><!-- Generator: Sketch 52.5 (67469) - http://www.bohemiancoding.com/sketch --><title>logo / logo white</title><desc>Created with Sketch.</desc><defs><polygon id="path-1" points="0 0.170046471 32.013676 0.170046471 32.013676 30.5 0 30.5"></polygon></defs><g id="home" stroke="none" stroke-width="1" fill="none" fill-rule="evenodd"><g id="home-page" transform="translate(-211.000000, -2793.000000)"><g id="logo-/-logo-white" transform="translate(211.000000, 2793.000000)"><g id="Group-78"><path d="M52.8800907,47.4159931 C52.6626662,48.2046199 51.9626195,48.3950264 51.3242641,47.8395863 L38.9118819,37.0425183 C38.2731503,36.4874289 38.414213,35.7854143 39.2256052,35.483499 L56.6364943,28.9960008 C57.4478865,28.6937348 57.9331419,29.0913794 57.7153412,29.8796555 L52.8800907,47.4159931 Z" id="Fill-1" fill="#FEFEFE"></path><path d="M43.3004585,57.4971999 C42.6565764,58.0333447 42.0064714,57.8107473 41.8549266,57.0024603 L38.5443694,39.2937569 C38.3935568,38.4858239 38.7782754,38.2826905 39.3994625,38.8432538 L50.8945341,49.2136743 C51.5160872,49.7742376 51.4974186,50.671705 50.8535365,51.2078498 L43.3004585,57.4971999 Z" id="Fill-3" fill="#FEFEFE"></path><path d="M57.4386666,24.8679824 C58.0136012,25.5309294 57.8144978,26.3393553 56.9976053,26.6638564 L39.5409827,33.5986057 C38.7233316,33.9231068 38.3057835,33.5175747 38.612213,32.6974652 L45.781071,13.5519036 C46.0878798,12.7317941 46.8092028,12.6032751 47.3833789,13.266222 L57.4386666,24.8679824 Z" id="Fill-5" fill="#FEFEFE"></path><path d="M40.0693757,55.4768195 C40.2318434,56.3228628 39.9584414,56.4247288 39.4623839,55.7027768 L32.440083,45.4909903 C31.9436322,44.7694088 31.9849375,43.6151747 32.5309548,42.9265607 L35.6674068,38.9697157 C36.2130306,38.2807312 36.7928789,38.4088971 36.9553466,39.2553108 L40.0693757,55.4768195 Z" id="Fill-7" fill="#FEFEFE"></path><path d="M37.123174,31.5032298 C36.8210655,32.3130267 36.3494177,32.3048319 36.0753168,31.4849777 L33.7992333,24.6702424 C33.5247589,23.8503882 33.8261206,22.7038588 34.468428,22.1231443 L42.5854009,14.7846857 C43.2277083,14.2039712 43.5055435,14.3920795 43.203435,15.2026214 L37.123174,31.5032298 Z" id="Fill-9" fill="#FEFEFE"></path><path d="M35.1954896,32.7296398 C35.4336469,33.4835104 35.2600582,34.6206469 34.8097009,35.2574845 L32.7834178,38.1203446 C32.333385,38.75684 32.0277391,38.6309097 32.1049617,37.8407658 L33.0764096,27.9025414 C33.1533077,27.1120552 33.4115818,27.0819415 33.6494145,27.835812 L35.1954896,32.7296398 Z" id="Fill-11" fill="#FEFEFE"></path><path d="M44.8219001,9.7528345 C45.101422,10.0461779 44.821176,10.7031755 44.1980449,11.2130108 L40.6569516,14.1127607 C40.0338206,14.622269 39.934612,14.5405123 40.4360859,13.9315877 L43.40148,10.3270942 C43.9025917,9.71751557 44.5420162,9.45916411 44.8219001,9.7528345" id="Fill-13" fill="#FEFEFE"></path><path d="M65.9229101,66.8474049 C65.4892323,67.587333 64.7362167,67.6153941 64.2499944,66.9086963 L54.7912307,53.1742421 C54.3042683,52.4682828 54.6054745,51.8180765 55.4602489,51.7302008 L74.465844,49.7725666 C75.3202484,49.6850601 75.6647484,50.2178527 75.2310706,50.95815 L65.9229101,66.8474049 Z" id="Fill-15" fill="#FEFEFE"></path><path d="M62.3398014,66.5513264 C62.8233683,67.2522065 62.5580321,67.6011817 61.7491432,67.328007 L44.0301326,61.3372038 C43.2212437,61.0632966 43.0891276,60.3854863 43.7364596,59.8307145 L51.3300058,53.3228566 C51.9773378,52.7680848 52.9028863,52.8874615 53.3868213,53.5879753 L62.3398014,66.5513264 Z" id="Fill-17" fill="#FEFEFE"></path><path d="M75.1226852,46.4213996 C75.6707638,47.0720772 75.4352528,47.6768855 74.600292,47.7645549 L55.7438536,49.7546886 C54.9081693,49.842728 54.3955439,49.2342206 54.6050077,48.4026554 L59.3239107,29.629554 C59.5326509,28.7979888 60.1527214,28.6496536 60.7008001,29.3003311 L75.1226852,46.4213996 Z" id="Fill-19" fill="#FEFEFE"></path><path d="M89.5606946,61.6987221 C90.1082128,62.3551703 89.8842938,63.0381152 89.0637387,63.2165019 L69.9081845,67.3828392 C69.0876294,67.5615991 68.7625856,67.095853 69.1855037,66.3479724 L78.2209994,50.3767639 C78.6431952,49.6292564 79.4373856,49.5538712 79.9845427,50.2103194 L89.5606946,61.6987221 Z" id="Fill-21" fill="#FEFEFE"></path><path d="M57.9554575,71.9911641 C57.2392698,72.4151767 56.1534255,72.2764159 55.5444558,71.6823345 L46.9186686,63.2801599 C46.308998,62.6860785 46.4400422,62.436773 47.2098388,62.7255035 L61.9743778,68.2596987 C62.7441745,68.5488158 62.7876222,69.1316881 62.0714345,69.5557007 L57.9554575,71.9911641 Z" id="Fill-23" fill="#FEFEFE"></path><path d="M79.7566803,73.3393781 C79.1162534,73.8788399 77.9883745,74.0038953 77.2505998,73.6180939 L71.1216138,70.4132287 C70.3838391,70.0274273 70.4430323,69.5682796 71.2524806,69.392982 L87.544857,65.8661267 C88.354662,65.6908291 88.4937302,65.9882482 87.8533032,66.5273433 L79.7566803,73.3393781 Z" id="Fill-25" fill="#FEFEFE"></path><path d="M61.7156391,73.376349 C60.8119551,73.3398524 60.725055,73.0000209 61.5219647,72.6226599 L65.106305,70.9235025 C65.9036045,70.5454529 67.2152906,70.5330578 68.0223322,70.8952693 L73.2573863,73.2468894 C74.0640383,73.6094452 73.9841524,73.8752505 73.0808582,73.838754 L61.7156391,73.376349 Z" id="Fill-27" fill="#FEFEFE"></path><path d="M92.9698819,64.4066468 C93.2726475,64.7925596 92.8636002,65.4933979 92.0608008,65.963635 L87.3106757,68.7446164 C86.5074842,69.2148535 86.4263022,69.0827741 87.1310558,68.4499116 L91.1376011,64.8549424 C91.8427469,64.2220798 92.6671163,64.020734 92.9698819,64.4066468" id="Fill-29" fill="#FEFEFE"></path><path d="M81.3631302,44.8461529 C80.5525402,45.148412 80.0673146,44.7504258 80.2843496,43.9621678 L85.1193029,26.4262322 C85.336338,25.6379742 86.0374701,25.4468707 86.6757863,26.0022981 L99.0885341,36.7994692 C99.7268503,37.3548966 99.5854202,38.0561937 98.7748301,38.3584528 L81.3631302,44.8461529 Z" id="Fill-31" fill="#FEFEFE"></path><path d="M99.4556108,34.5482662 C99.6064162,35.3565387 99.222082,35.5593146 98.6009246,34.9987613 L87.1053038,24.6281715 C86.4841464,24.0676183 86.5024481,23.1705207 87.1462995,22.6343854 L94.6990168,16.3451473 C95.3432342,15.8086582 95.9936742,16.0312517 96.1448456,16.8398781 L99.4556108,34.5482662 Z" id="Fill-33" fill="#FEFEFE"></path><path d="M92.2189431,60.2904302 C91.9117633,61.1105385 91.1908389,61.2386804 90.616299,60.5757344 L80.5612809,48.9739922 C79.9863617,48.3106694 80.1854597,47.5026216 81.0030888,47.1777441 L98.4596227,40.2437593 C99.2768726,39.9188819 99.6947888,40.3240365 99.3872298,41.1441447 L92.2189431,60.2904302 Z" id="Fill-35" fill="#FEFEFE"></path><path d="M105.559911,28.3500561 C106.055946,29.072357 106.015429,30.2261864 105.469437,30.9155208 L102.333526,34.8722481 C101.787141,35.5615824 101.207713,35.4330499 101.044859,34.5866614 L97.9305828,18.3652647 C97.7681228,17.5192466 98.0419053,17.4173837 98.5379395,18.1393142 L105.559911,28.3500561 Z" id="Fill-37" fill="#FEFEFE"></path><path d="M104.200929,49.1712983 C104.475017,49.9918763 104.174043,51.1380036 103.531767,51.7183306 L95.4148072,59.0577172 C94.7729038,59.6380442 94.494335,59.4499408 94.7964291,58.6394198 L100.87752,42.3392324 C101.179241,41.5290839 101.65124,41.536906 101.924954,42.3578565 L104.200929,49.1712983 Z" id="Fill-39" fill="#FEFEFE"></path><path d="M104.923896,45.9397048 C104.846672,46.7302403 104.588717,46.7600137 104.350555,46.0060961 L102.80445,41.1129894 C102.566288,40.3590718 102.740204,39.2215221 103.190246,38.584987 L105.216245,35.7219481 C105.666611,35.0854131 105.972263,35.211009 105.895038,36.00086 L104.923896,45.9397048 Z" id="Fill-41" fill="#FEFEFE"></path><path d="M94.59875,63.5148194 C94.0972007,64.1244591 93.4580422,64.3828365 93.1781162,64.0894637 C92.8985522,63.796091 93.1788404,63.1390276 93.8020652,62.6288141 L97.342967,59.729755 C97.9661918,59.2198686 98.0654153,59.3013065 97.563866,59.9106191 L94.59875,63.5148194 Z" id="Fill-43" fill="#FEFEFE"></path><path d="M81.6044536,20.6674365 C82.0910449,21.3737626 81.7894693,22.0239667 80.9350667,22.1118421 L61.9291421,24.0694696 C61.0751096,24.1573449 60.7306103,23.624185 61.1642872,22.8842594 L70.473908,6.99468992 C70.9072148,6.25439512 71.6598588,6.22707252 72.1460801,6.93339868 L81.6044536,20.6674365 Z" id="Fill-45" fill="#FEFEFE"></path><path d="M86.6696943,20.5192475 C86.0223419,21.0740211 85.097132,20.9546441 84.6128137,20.254128 L75.6602861,7.29073643 C75.1763358,6.59022039 75.4424165,6.24087784 76.250963,6.51405346 L93.9697987,12.5052416 C94.7790813,12.7787834 94.9108335,13.4562296 94.263113,14.0113693 L86.6696943,20.5192475 Z" id="Fill-47" fill="#FEFEFE"></path><path d="M78.6761805,44.2124441 C78.4667156,45.044372 77.8477268,45.192336 77.2992833,44.5416641 L62.8776779,27.4207439 C62.3292343,26.770072 62.5643849,26.1660088 63.3997122,26.0776002 L82.2562579,24.0874838 C83.091947,23.9990752 83.6042135,24.6075774 83.3951104,25.4395053 L78.6761805,44.2124441 Z" id="Fill-49" fill="#FEFEFE"></path><path d="M59.7792985,23.4651029 C59.3560256,24.2133379 58.5618471,24.2879748 58.0146983,23.6315432 L48.4394129,12.1438036 C47.8919029,11.487372 48.1154574,10.8048174 48.9360001,10.6264352 L68.0919883,6.45908352 C68.912531,6.28070131 69.2372087,6.74718198 68.8146581,7.49504379 L59.7792985,23.4651029 Z" id="Fill-51" fill="#FEFEFE"></path><path d="M76.0259657,5.58249666 C75.2554598,5.2937708 75.212362,4.71090787 75.9292583,4.28651564 L80.0442292,1.85109172 C80.7611255,1.427086 81.8455801,1.56545796 82.4559581,2.15914327 L91.0814894,10.5615684 C91.6911666,11.1552537 91.5597706,11.4053282 90.7896151,11.1169888 L76.0259657,5.58249666 Z" id="Fill-53" fill="#FEFEFE"></path><path d="M50.454879,7.97601833 C49.6451253,8.15129438 49.5064225,7.8535451 50.1468089,7.31488292 L58.2432759,0.502218056 C58.8836624,-0.0364441264 60.0114699,-0.161850843 60.7491979,0.22390315 L66.8781525,3.42910814 C67.616237,3.81412876 67.5570477,4.27395339 66.747294,4.44886276 L50.454879,7.97601833 Z" id="Fill-55" fill="#FEFEFE"></path><path d="M72.8934371,2.918664 C72.0961934,3.29628086 70.7849886,3.30936148 69.9783931,2.9468906 L64.7425362,0.595132731 C63.9359407,0.232661853 64.0158209,-0.0334255058 64.9194417,0.00340676765 L76.2842555,0.46604766 C77.1878762,0.502879934 77.27516,0.842287613 76.4779163,1.21956025 L72.8934371,2.918664 Z" id="Fill-57" fill="#FEFEFE"></path><path d="M46.8623723,8.98761679 C46.1573109,9.6198895 45.3334321,9.82118449 45.0303106,9.43579922 C44.7271891,9.04955371 45.1361875,8.34889232 45.939283,7.8787739 L50.6896245,5.09763421 C51.49272,4.62665556 51.5735001,4.75999198 50.8688308,5.39269481 L46.8623723,8.98761679 Z" id="Fill-59" fill="#FEFEFE"></path><path d="M41.8417382,61.1083838 C42.134973,60.8287464 42.7920544,61.1091083 43.3017012,61.7321347 L46.2000512,65.2750544 C46.709698,65.8977186 46.6282983,65.9976926 46.0189452,65.4963737 L42.4161123,62.529029 C41.8070862,62.0280723 41.5488303,61.3883835 41.8417382,61.1083838" id="Fill-61" fill="#FEFEFE"></path><path d="M96.475158,12.9422311 C96.8605081,12.638965 97.5611057,13.0481584 98.0311812,13.851637 L100.811207,18.6038521 C101.281713,19.4073307 101.149249,19.487757 100.517034,18.7827516 L96.9224394,14.7747743 C96.2906544,14.0701612 96.0893778,13.2451048 96.475158,12.9422311" id="Fill-63" fill="#FEFEFE"></path><path d="M95.583992,11.3128656 C96.1930337,11.8142515 96.4512961,12.4536633 96.1580538,12.7337004 C95.8648115,13.0133752 95.2080404,12.7329758 94.6983808,12.1102285 L91.7999572,8.56683615 C91.2902976,7.94408884 91.3716993,7.84446376 91.9810679,8.34621188 L95.583992,11.3128656 Z" id="Fill-65" fill="#FEFEFE"></path><path d="M39.4731103,59.0675126 C40.104698,59.7720578 40.3059118,60.5970348 39.9202521,60.8998794 C39.5350223,61.2031163 38.8342136,60.7939623 38.3647148,59.9909533 L35.5834073,55.2384111 C35.1134786,54.4350098 35.2467612,54.3541989 35.8787788,55.0591365 L39.4731103,59.0675126 Z" id="Fill-67" fill="#FEFEFE"></path><g id="Group-71" transform="translate(0.000000, 89.894737)"><mask id="mask-2" fill="white"><use xlink:href="#path-1"></use></mask><g id="Clip-70"></g><path d="M9.56036407,4.47844059 C7.5713344,5.58756412 5.9928741,7.09498176 4.8238765,9.00033471 C3.65414114,10.9056876 3.06982678,12.9961935 3.06982678,15.2711347 C3.06982678,17.5464347 3.65414114,19.6505759 4.8238765,21.5846347 C5.9928741,23.5186935 7.5713344,25.0469229 9.56036407,26.1700406 C11.5479182,27.2938759 13.7114306,27.8550759 16.0509014,27.8550759 C18.3597546,27.8550759 20.5018717,27.2938759 22.4754082,26.1700406 C24.4485758,25.0469229 26.0200273,23.5186935 27.1897626,21.5846347 C28.3587602,19.6505759 28.9438123,17.5464347 28.9438123,15.2711347 C28.9438123,12.4920465 28.0706608,9.98817588 26.3262021,7.76024059 C25.4762903,6.67515824 24.4434114,5.72858176 23.2795782,4.96715824 C21.0876616,3.53222294 18.6777338,2.81457588 16.0509014,2.81457588 C13.7114306,2.81457588 11.5479182,3.36931706 9.56036407,4.47844059 M24.0542374,2.19632294 C26.4947827,3.54729353 28.4317995,5.37406412 29.864919,7.67771118 C31.2969318,9.98135824 32.013676,12.5132171 32.013676,15.2711347 C32.013676,18.02977 31.2969318,20.5752641 29.864919,22.9068994 C28.4317995,25.2388935 26.4947827,27.0875524 24.0542374,28.4525171 C21.6125854,29.8174818 18.9296824,30.5003229 16.007004,30.5003229 C13.08285,30.5003229 10.3999471,29.8174818 7.95940176,28.4525171 C5.51811868,27.0875524 3.58073296,25.2388935 2.14872013,22.9068994 C0.715600642,20.5752641 -3.68885325e-05,18.02977 -3.68885325e-05,15.2711347 C-3.68885325e-05,12.5132171 0.715600642,9.98135824 2.14872013,7.67771118 C3.58073296,5.37406412 5.51811868,3.54729353 7.95940176,2.19632294 C10.3999471,0.845711176 13.08285,0.170046471 16.007004,0.170046471 C18.9296824,0.170046471 21.6125854,0.845711176 24.0542374,2.19632294" id="Fill-69" fill="#FEFEFE" mask="url(#mask-2)"></path></g><path d="M55.0681221,107.828292 C58.0668617,107.828292 60.3764664,107.166533 61.9965579,105.843015 C63.6158924,104.519498 64.4261273,102.606893 64.4261273,100.104836 C64.4261273,97.661503 63.6158924,95.8002832 61.9965579,94.5197083 C60.3764664,93.2402344 58.0668617,92.5997634 55.0681221,92.5997634 L46.4299051,92.5997634 L46.4299051,107.828292 L55.0681221,107.828292 Z M63.6310299,119.757569 L57.2725212,110.446332 C56.3124249,110.505057 55.5778775,110.533686 55.0681221,110.533686 L46.4299051,110.533686 L46.4299051,118.971753 C46.4299051,119.757936 45.7729374,120.394737 44.9627025,120.394737 L44.792784,120.394737 C43.9825491,120.394737 43.3255814,119.757936 43.3255814,118.971753 L43.3255814,89.8947368 L55.0681221,89.8947368 C58.9970613,89.8947368 62.0336447,90.7748798 64.1782507,92.5344317 C66.3224782,94.2947176 67.3953488,96.7887007 67.3953488,100.017849 C67.3953488,102.548535 66.7652502,104.657869 65.5058098,106.344381 C64.245991,108.032362 62.4461417,109.210535 60.1066404,109.8789 L66.0575719,118.15841 C66.7357321,119.101683 66.0397853,120.394737 64.8541403,120.394737 C64.3621714,120.394737 63.9027481,120.155799 63.6310299,119.757569 Z" id="Fill-72" fill="#FEFEFE"></path><path d="M100.667668,116.146602 C102.114775,115.11563 102.83796,113.670143 102.83796,111.81124 C102.83796,109.981292 102.107031,108.558528 100.64591,107.541116 C99.1840519,106.524803 97.1527919,106.016097 94.5517612,106.016097 L84.8627099,106.016097 L84.8627099,117.693244 L94.5517612,117.693244 C97.1822945,117.693244 99.221299,117.177941 100.667668,116.146602 M99.5934017,101.942052 C100.791948,100.998673 101.391222,99.6547075 101.391222,97.9119865 C101.391222,96.2275394 100.791948,94.9205903 99.5934017,93.9904061 C98.3952238,93.0613214 96.7146769,92.6108894 94.5517612,92.6394766 L84.8627099,92.6394766 L84.8627099,103.358219 L94.5517612,103.358219 C96.7146769,103.358219 98.3952238,102.88653 99.5934017,101.942052 M101.895349,91.9207646 C103.634163,93.271694 104.503755,95.138293 104.503755,97.5198285 C104.503755,99.3211899 103.999997,100.831182 102.991742,102.05127 C101.983119,103.270991 100.572522,104.0707 98.7610571,104.447465 C101.011375,104.738468 102.764941,105.566398 104.021755,106.930888 C105.278201,108.296845 105.906977,110.024905 105.906977,112.116171 C105.906977,114.730435 104.927488,116.76416 102.969615,118.215877 C101.011375,119.669061 98.2930707,120.394737 94.8147039,120.394737 L81.8372093,120.394737 L81.8372093,89.8947368 L94.6834169,89.8947368 C97.7528028,89.8947368 100.155797,90.5702016 101.895349,91.9207646" id="Fill-74" fill="#FEFEFE"></path><path d="M131.631868,93.3049952 C130.117376,92.8907558 128.692413,92.6825536 127.356603,92.6825536 C125.219158,92.6825536 123.504258,93.090298 122.21265,93.9054259 C120.921418,94.7205538 120.275614,95.8290411 120.275614,97.2301662 C120.275614,98.4598943 120.631855,99.4608526 121.344337,100.23268 C122.057193,101.004869 122.932249,101.612877 123.972128,102.055983 C125.010883,102.49945 126.435846,102.993073 128.247018,103.536131 C130.355244,104.136923 132.054786,104.730497 133.346019,105.316134 C134.637626,105.902853 135.735567,106.753342 136.641715,107.868325 C137.547113,108.984029 138,110.457321 138,112.286758 C138,113.88923 137.53213,115.304788 136.597138,116.533795 C135.662146,117.763884 134.348438,118.715047 132.656013,119.386562 C130.963588,120.05916 129.018686,120.394737 126.822055,120.394737 C124.654642,120.394737 122.539298,119.980497 120.476023,119.150936 C118.812068,118.482308 117.337283,117.63723 116.050171,116.615704 C115.517496,116.192805 115.381143,115.458504 115.719403,114.87828 C116.145693,114.146866 117.149611,113.945881 117.834747,114.464041 C118.920701,115.285303 120.120532,115.961148 121.433491,116.491216 C123.273881,117.234898 125.085053,117.606559 126.866257,117.606559 C129.241196,117.606559 131.126163,117.142164 132.522282,116.211929 C133.917653,115.283138 134.615525,114.03176 134.615525,112.458516 C134.615525,111.200643 134.259284,110.171178 133.546428,109.369762 C132.834321,108.569789 131.958141,107.954565 130.919386,107.52517 C129.879507,107.096497 128.424951,106.59674 126.554968,106.024093 C124.446367,105.395518 122.754316,104.801582 121.478068,104.24373 C120.20107,103.686239 119.118113,102.857038 118.226949,101.755768 C117.336159,100.654858 116.891139,99.2180102 116.891139,97.4448634 C116.891139,95.9289926 117.336159,94.5993129 118.226949,93.4551029 C119.118113,92.3116145 120.364768,91.4322578 121.967665,90.8166721 C123.570936,90.201808 125.42631,89.8947368 127.534536,89.8947368 C129.226961,89.8947368 130.926129,90.1379401 132.633537,90.623625 C133.817635,90.9613672 134.905088,91.3741633 135.896643,91.8627349 C136.605379,92.2120238 136.898313,93.0390593 136.537203,93.722843 L136.493749,93.8054744 C136.131515,94.4910622 135.263951,94.7425647 134.55072,94.3961624 C133.632585,93.9501695 132.659384,93.5864471 131.631868,93.3049952" id="Fill-76" fill="#FEFEFE"></path></g></g></g></g></svg> 